<?xml version="1.0" encoding="UTF-8" standalone="no"?>
<svg
   xmlns:dc="http://purl.org/dc/elements/1.1/"
   xmlns:cc="http://creativecommons.org/ns#"
   xmlns:rdf="http://www.w3.org/1999/02/22-rdf-syntax-ns#"
   xmlns:svg="http://www.w3.org/2000/svg"
   xmlns="http://www.w3.org/2000/svg"
   xmlns:sodipodi="http://sodipodi.sourceforge.net/DTD/sodipodi-0.dtd"
   xmlns:inkscape="http://www.inkscape.org/namespaces/inkscape"
   width="919.39"
   height="97.959"
   viewBox="0 0 919.388 97.959"
   version="1.1"
   id="svg876"
   sodipodi:docname="mountainsBlack.svg"
   inkscape:version="1.0.2 (e86c870879, 2021-01-15)">
  <metadata
     id="metadata880">
    <rdf:RDF>
      <cc:Work
         rdf:about="">
        <dc:format>image/svg+xml</dc:format>
        <dc:type
           rdf:resource="http://purl.org/dc/dcmitype/StillImage" />
        <dc:title></dc:title>
      </cc:Work>
    </rdf:RDF>
  </metadata>
  <sodipodi:namedview
     pagecolor="#ffffff"
     bordercolor="#666666"
     borderopacity="1"
     objecttolerance="10"
     gridtolerance="10"
     guidetolerance="10"
     inkscape:pageopacity="0"
     inkscape:pageshadow="2"
     inkscape:window-width="1920"
     inkscape:window-height="1137"
     id="namedview878"
     showgrid="false"
     inkscape:zoom="1.3204407"
     inkscape:cx="459.69501"
     inkscape:cy="48.9795"
     inkscape:window-x="-8"
     inkscape:window-y="-8"
     inkscape:window-maximized="1"
     inkscape:current-layer="svg876" />
  <defs
     id="defs870">
    <clipPath
       id="a">
      <path
         d="M0 212.162h928.94V0H0z"
         id="path867" />
    </clipPath>
  </defs>
  <g
     clip-path="url(#a)"
     fill="#fbfafa"
     transform="matrix(1.3333 0 0 -1.3333 -159.77 282.88)"
     id="g874"
     style="fill:#000000">
    <path
       d="M809.37 180.305l-6.108 4.018s-3.377 1.688-3.554 2.488c-.18.799-.801 2.31-.89 2.576-.088.267-1.421.89-1.687.89-.267 0-1.776.532-1.864.799-.09.266-.356 1.243-.801 1.776-.444.534-1.332.889-1.332.889l-1.333.533-1.866.977s-.978.623-1.245 1.067c-.266.444-1.154 1.599-1.42 2.131-.267.534-.89 1.067-1.511 1.334-.622.266-1.421.622-1.421.622l-1.333 1.51-1.511.622s-1.065.089-1.332-.445c-.265-.533-.8-1.51-.8-1.51s-1.244-.711-1.954-1.066c-.712-.356-3.2-1.333-3.2-1.333s-1.42-1.065-1.953-1.333c-.534-.266-1.776-.799-2.132-1.066-.356-.266-1.244-.444-1.334-.976-.09-.534-1.065-1.778-1.065-1.778l-1.955-1.421s-3.554-1.689-4.265-1.955c-.71-.267-1.777-.356-2.843-1.155s-2.844-1.155-3.11-1.243c-.266-.09-1.42-.268-1.687-.711-.266-.445-1.866-1.866-2.4-2.133-.533-.267-3.11-1.688-3.11-1.688l-2.487-.71-.976-.8s-1.157-2.932-1.78-3.288c-.621-.355-2.574-1.154-2.574-1.154s-.801-1.422-.89-1.778c-.087-.355-.71-1.599-1.066-2.042-.355-.446-2.575-1.334-2.931-1.334s-1.6-1.243-1.6-1.243l-.621-3.465-1.156-1.955s-2.931-1.866-3.287-2.132c-.355-.267-5.862-4.709-6.484-5.332-.622-.621-4.178-2.842-4.621-3.287-.444-.443-1.688-1.776-2.31-2.043-.621-.267-3.288-.355-3.288-.355l-1.332 2.31-.8 3.021s-1.066.799-1.865 1.776c-.801.977-1.333 1.778-1.6 1.778-.266 0-.977-.179-1.51-.534-.532-.355-2.4-1.065-2.665-1.421-.266-.355-.888-.8-1.155-1.422-.266-.622-.355-1.154-1.422-1.776-1.066-.623-3.375-2.045-3.375-2.045l-.89-2.665s-.443-.266-1.065-.71c-.623-.444-7.552-1.51-7.82-1.599-.265-.09-3.997-1.866-4.263-2.399-.267-.533-.267-1.51-1.156-.978-.887.533-3.11 2.221-3.376 2.665-.266.445-.443.889-1.332 1.689-.89.799-2.4 2.221-2.754 2.487-.356.268-3.288 1.599-3.288 1.599s-3.91 3.021-5.064 4.266c-1.155 1.244-4.71 4.353-5.154 4.264-.443-.089-7.373-.977-7.995-.444s-2.844 2.843-3.198 3.198c-.355.356-1.244.888-1.6 1.333-.355.444-1.067 2.132-1.244 2.843-.176.711-.176.977-.532 1.333-.356.355-.89.621-.89.621h-1.51l-1.6-.177s-.354-.089-.798 0c-.445.088.267.088-.445.088-.71 0-1.776-.443-2.22-1.065-.445-.622-.89-2.487-.89-2.487s0-1.245-.177-1.956-.888-2.132-.888-2.132-6.221-7.729-6.664-8.618c-.443-.888-2.132-3.199-2.132-3.199s-2.133-1.866-2.576-1.866c-.444 0-1.866.446-1.866.446l-2.222 1.599s-.888.71-1.065.976c-.18.267-1.51.8-1.51.8l-1.956.978s-.978-.534-1.244-.622c-.267-.09-2.132-.356-2.31-.622-.177-.267-1.154-1.066-1.154-1.066l-1.244-1.6s-.8-.178-1.066-.178-1.955 1.599-1.955 1.599l-1.69.179-1.42-.356-1.511-.533s-2.754-2.576-3.91-3.377c-1.153-.799-2.22-1.154-2.841-1.42-.622-.267-.89-.178-2.577-.978-1.687-.799-3.198-.799-3.554-.889-.355-.089.889-1.066-2.398-.266-3.287.799-5.775-.711-6.664.799-.888 1.511-.8 2.133-2.132 2.488-1.332.356-2.843.801-2.843.801s-1.865.354-3.821.443c-1.953.089-.978-.089-2.575.177-1.6.268-2.133.445-3.022.712-.887.266-3.376.71-3.82 1.244-.444.532-8.175 5.864-9.686 7.018-1.51 1.156-6.574 3.287-7.638 4.443-1.068 1.154-4.443 2.665-5.6 3.642-1.154.977-1.597 1.422-2.308 2.31-.711.889-1.69 1.599-1.69 1.599l-1.154-.444h-1.242s-.535-.355-.978-.8c-.445-.443-1.067-.799-1.244-1.154-.18-.355-1.69-3.198-2.577-3.821-.89-.622-1.155-.71-1.866-1.332-.71-.622-2.043-1.156-2.577-1.6-.532-.444-1.6-.889-2.043-1.244-.445-.355-1.066-.355-2.043-.888s-2.398-.711-3.2-.888c-.8-.178-1.776-.268-1.776-.268l-2.132-.266s-.8 1.245-1.601 1.955c-.797.71-.708.622-1.331 1.332-.622.711-.798.356-.977 1.245-.178.888.089 1.599-.267 1.866-.355.266-1.686.266-1.686.266s-.446-.356-.712-.533c-.267-.178-1.954-.711-1.954-.711l-1.243 1.155h-.98s-.178-.089-.443-.622c-.267-.533-1.6-2.666-1.6-2.666s-.8-1.776-1.332-2.487c-.533-.711-1.954-1.954-2.133-2.221-.176-.266-.712-.977-.712-.977s-3.02.888-3.552 1.155c-.533.266-1.421.266-2.132.977-.71.711-1.867.711-1.954 1.333-.09.621 0 .977-.622 1.155-.622.177.089.888-.622.177s-1.956-1.51-1.956-1.51-.177 0-1.332-.711-1.422-1.066-2.043-1.066c-.622 0-1.51.089-2.221.089-.712 0-2.31.444-2.845-.355-.532-.8-1.51-1.51-1.865-1.688-.355-.179-2.131 0-2.576-.267-.446-.267-2.132-1.511-2.132-1.511l-1.866-.888s-1.421-.711-2.31-.799c-.89-.09-1.866-.711-3.554.177s-2.043 1.156-2.666 1.156c-.621 0-2.666-.357-3.731-.979-1.067-.622-3.197-.444-3.197-.444s-2.49 1.066-3.2 1.066c-.712 0-1.421.267-2.221 0-.8-.265-1.688-.532-2.4 0-.71.534-1.332.978-2.043.978-.71 0-2.486.977-2.486.977l-3.288 1.422s-1.066.178-1.6-.09c-.533-.266-1.954-.177-2.486-.443-.533-.267-1.601-1.156-1.867-.267l-.266.889-.89 1.155s-.8.533-1.243.533h-2.754l-3.463.888-.623 1.866-1.333.889-1.245-.356s-.443-.178-1.244-.178c-.8 0-3.996.8-4.264.978-.267.178-1.955 1.244-1.955 1.244l-1.51 1.599s-1.067 1.066-1.6 1.244c-.532.177-1.953 1.154-2.575 1.243s-3.287 1.155-3.287 1.155l-.978.623s-5.063 5.508-5.508 5.952c-.444.444-3.464 2.044-3.464 2.044s-1.244 1.954-1.78 2.576c-.532.621-.532 1.333-1.242 1.599-.711.266-1.51.089-2.132.711s-1.067 1.777-1.51 1.688c-.446-.089-1.245-.799-1.333-1.066-.09-.267-.89-.889-1.156-1.333-.265-.444-.444-.622-.444-1.066s.179-1.066-.267-1.599c-.443-.534-1.777-2.31-1.777-2.31s-1.154-1.155-1.42-1.333c-.267-.178-1.511-1.422-1.511-1.422s-1.155 0-1.51-.8c-.356-.799-.622-1.331-.622-1.331s-.356-1.156-.888-1.245c-.533-.088-3.111-.533-3.111-.533l-2.576.267s-1.6.266-2.043 0c-.445-.267-1.422.533-1.955-.622s.266-.177-.533-1.155c-.8-.977-.711-.8-1.423-1.511-.71-.71-1.864-1.598-2.13-1.688-.266-.088-.535.356-.8-.177-.267-.533-.267-.178-.89-1.244s-1.154-1.422-1.154-1.422l-1.954 1.511-1.51 2.399s-2.666.711-3.376.711h-.712s-.236-.474-1.896-.948c-1.658-.474-3.317.948-3.317.948l-1.894 1.421s-1.422 1.184-2.843.71c-1.421-.473-.474.711-1.421-.473-.948-1.184-1.66-2.843-2.608-3.316-.948-.475-3.316-2.607-3.316-2.607s-1.422-1.422-2.37-2.132c-.947-.711-4.027-2.607-4.027-2.607l-.168-.111c-1.832.045-2.938.236-4.61.774-1.953.629-1.431.943-2.864 1.886l-1.432.942s-2.083-.628-2.735-.471c-.651.157-1.433.157-1.433.157s-.52.314-1.171-.157-1.303-.628-1.694-1.099-.65-1.258-1.172-1.258c-.52 0-4.036-1.415-5.47-2.2-1.43-.786-1.953-.628-2.602-.786-.652-.157-1.043-.157-1.434-.157-.39 0-1.301-.157-1.692.157s-1.302 1.414-2.084 1.729c-.781.313-1.563 1.257-2.344 1.257s-.52-.314-1.693 0c-1.172.314-2.083.314-2.344.787-.26.471-1.041 1.099-1.563 1.57-.52.471-2.213 1.728-2.213 1.728l-1.172 1.416s-.13.786-.911 1.57c-.782.787.39.473-.782.787s-2.344.314-2.735.314-.911.157-1.432 0l-.522-.157s-1.432-.63-2.083-.786c-.65-.158-2.213-.315-2.213-.315-1.043.157-2.345.786-2.345.786h-1.953c-1.173 0-1.302.158-1.954-.315-.65-.471-.78-.942-1.432-1.57-.652-.629-.52-.629-1.433-1.1-.911-.472.132 0-.911-.472-1.041-.471.39.314-1.041-.471-1.433-.786 0 1.1-1.433-.786-1.432-1.886-.52-1.414-1.432-1.886-.913-.471 0-.471-.913-.471h-.911s-1.562.785-1.953.943c-.391.157-2.865.628-2.865.628s.13 0-1.302-.942c-1.433-.944-2.345-1.729-2.345-1.729s-1.171-.944-1.822-.944-2.215-.314-2.215-.314-.311-.141-.746-.314h-.077c-.781 0-1.304-.105-2.171-.629-.138 0-.324-.011-.535-.029-.125.21-.106.658-.594.658-.781 0-1.736.314-2.343.734-.61.419-1.65.838-2.171 1.047s-1.39.629-2.343 1.571c-.955.944-1.043 1.152-1.91 1.573-.87.419-.523 1.256-1.39 1.99-.651.55-1.058.687-1.221.721-1.063 1.712-1.747 2.802-1.875 2.984-.83 1.185-2.37 3.555-3.081 4.265-.71.711-5.922 4.146-6.87 4.739-.947.593-1.421.948-1.776 1.066-.356.118-3.2 1.065-3.792 1.303-.592.236-2.486 1.54-2.842 2.251-.355.71-3.2 2.132-4.384 2.843-1.184.71-5.923 2.724-7.344 3.435-1.422.71-4.028 1.54-5.568 2.606s-5.566 4.146-6.634 5.213c-1.065 1.065-2.605 3.554-2.961 4.382-.355.829-2.488 3.79-2.725 4.265-.236.474-1.065 1.658-2.368 3.791-1.304 2.132-2.49 1.54-3.673 2.843-1.184 1.302-3.317 1.658-3.317 1.658s-3.198 1.422-3.553 1.422c-.356 0-2.252-.592-2.252-.592s-1.065-1.66-1.896-2.844a62.595 62.595 0 0 0-2.605-3.435c-.593-.711-2.606-2.607-4.03-3.909-1.42-1.303-2.604-1.777-5.092-3.909-2.486-2.133-5.094-3.672-5.094-3.672s-2.013-.355-2.605-.355-4.502.355-5.922.71c-1.423.355-3.2-.593-4.385-.593-1.184 0-3.79-.711-3.79-.711s-6.16-1.658-6.634-2.013c-.474-.356-2.607-.593-2.96-.593-.122 0-.658.182-1.337.436v-51.989h689.54z"
       fill="#fbfafa"
       id="path872"
       style="fill:#000000" />
  </g>
</svg>
