<?xml version="1.0" encoding="UTF-8"?>
<svg id="Calque_1" data-name="Calque 1" xmlns="http://www.w3.org/2000/svg" xmlns:xlink="http://www.w3.org/1999/xlink" viewBox="0 0 837.6 806.4">
  <defs>
    <style>
      .cls-1 {
        mask: url(#mask);
      }

      .cls-2 {
        fill: none;
        stroke: rgba(216, 221, 226, .5);
        stroke-width: 10px;
      }

      .cls-3 {
        fill: #fff;
        stroke-width: 0px;
      }

      .cls-4 {
        mask: url(#mask-3);
      }

      .cls-5 {
        mask: url(#mask-2);
      }

      .cls-6 {
        mask: url(#mask-5);
      }

      .cls-7 {
        mask: url(#mask-4);
      }

      .cls-8 {
        mask: url(#mask-1);
      }

      .cls-9 {
        mask: url(#mask-6);
      }
    </style>
    <mask id="mask" x="0" y="0" width="837.6" height="806.4" maskUnits="userSpaceOnUse">
      <g id="path-1-inside-1_441_31" data-name="path-1-inside-1 441 31">
        <path class="cls-3" d="M721.24,77.96c2.18,1.11,4.36,2.26,6.5,3.5,1.29.74,2.98,1.65,4.94,2.69,9.72,5.21,24.33,13.02,27.36,20.16,2.51,5.91.73,15.55-.97,24.86-1.04,5.67-2.03,11.03-1.97,15.1.04,2.61-.04,5.22-.11,7.81-.26,10.38-.52,20.18,6.32,27.92,2.31,2.33,4.94,4.33,7.81,5.92,3.25,2.04,6.6,4.15,9.17,7.28,1.4,1.96,2.39,4.19,2.88,6.55.71,2.61,1.49,5.25,3.5,7.5,2.96,3.21,6.37,5.97,10.13,8.19,5.45,3.5,10.59,6.8,13.68,17.33,2.84,9.64,2.49,20.59,2.17,30.24-.09,2.4-.16,4.74-.18,7-.02,2.26-.06,4.55-.13,6.68-.32,11.35-.61,21.15,4.51,31.98,1.42,2.96,2.81,5.76,4.17,8.44,4.12,8.1,8.01,15.74,10.03,26.26,5.85,30.57-6.48,71.56-10.4,83.39-1.94,5.84-4.48,11.63-6.94,17.23-3.12,7.1-6.33,14.44-8.31,21.87-1.1,4.13-1.84,8.06-2.52,11.84-1.62,8.84-3.15,17.19-9.15,26.04-9.74,14.37-24.92,16.64-39.58,18.82-10.24,1.55-20.82,3.11-29.92,8.66-23.78,14.58-40.89,31.79-57.78,49.6l-1.12,1.19c-16.98,17.99-36.27,38.33-43.14,63.29-2.98,10.9,2.02,21.81,6.86,32.35,5.44,11.86,11.04,24.09,5.4,36.44,3.87,3.57,9.31,7.08,14.58,10.48,9.88,6.38,18.4,11.89,17.36,17.86-.76,4.41-6.4,7.63-18.29,10.42-13.48,3.17-27.08,9.11-40.17,14.89-9.95,4.37-20.21,8.86-30.65,12.29-5.1,1.67-10.6,3.61-16.34,5.65-19.01,6.76-40.56,14.41-58.04,15.25-26.36,1.36-52.79-.16-78.83-4.51-7.73-1.43-15.2-4-22.17-7.63-4.28-2.16-8.4-4.65-12.3-7.44-8.19-5.85-11.07-11.41-14.35-17.81-1.69-3.43-3.6-6.75-5.73-9.93l-.64-.94.66-.96c2.5-3.41,5.29-6.6,8.32-9.55,3.5-3.34,6.64-7.05,9.34-11.07l8.07-12.3c.02-8.36-3.16-19.4-10.39-24.36-5.88-4.1-11.57-3.26-17.65-2.4-4.56.61-9.28,1.24-14.2-.13-1.58-.45-3.11-1.05-4.58-1.78-15.19-7.7-11.37-26.86-7.99-43.76,1.44-7.28,2.82-14.14,2.67-19.65-.05-5.21.17-10.42.65-15.61.53-6.82,1.02-13.26.28-19.3-1.15-9.57-8.05-19.68-14.13-28.63-1.89-2.79-3.71-5.45-5.26-7.97-2.1-3.4-4.65-6.85-7.1-10.23-4.95-6.73-10.07-13.7-12.48-21.15-.94-3.36-1.34-6.85-1.18-10.34-.02-3.45,0-6.67-1.2-10.01-1.05-2.96-3.23-5.12-5.53-7.41-2.3-2.29-4.46-4.51-5.96-7.59-5.14-10.96-6.56-30.13-4.64-40.48.85-3.75,2.04-7.41,3.57-10.94,3.08-7.78,6.25-15.82,1.96-23.23-2.41-4.11-7.38-7.11-12.72-10.36-5.86-3.57-12.52-7.61-16.72-13.89l-2.12-3.19c-8.06-12.17-12.07-18.06-26.32-23.72-24.02-9.67-46.88-22.01-68.15-36.78-20.75-14.67-32.89-31.86-41.91-59.32-5.15-15.68-8.31-19.71-19.55-30.13-7.85-7.23-12.24-14.35-16.89-21.88-1.5-2.43-3.11-4.95-4.78-7.58-2.28-3.48-4.88-6.74-7.35-9.87-5.56-6.98-11.32-14.18-13.52-23.7-.87-4.03-1.38-8.12-1.5-12.24-.45-8.34-.69-12.8-11.8-17.81-4.18-1.79-8.5-3.23-12.92-4.3-4.33-1.01-8.54-2.46-12.57-4.35-5.01-2.56-9.26-6.39-12.35-11.1-5.18-7.51-6.87-13.39-5.49-18.56,1.34-4.99,5.55-9.03,13.23-12.68,21.68-10.36,48.98-9.82,73.06-9.35,3.14.06,6.2.12,9.16.15,4.81.04,9.76-.06,15.01-.18,19.95-.44,42.54-.91,60.7,8.3.99.5,1.99,1.01,2.95,1.6,7.45,4.34,14.7,9.92,21.71,15.32,8.75,6.68,17.78,13.68,27.61,18.66,6.16,3.18,12.78,5.4,19.62,6.57,4.37.74,7.84,1.11,10.9,1.43,4.94.53,8.51.94,11.73,2.58,4.32,2.19,7.74,6.35,13.54,16.46,5.79,10.11,11.41,14.33,18.19,17.77,3.94,2,8.49,3.76,13.75,5.85l1.51.59c12.1,4.71,21.82,6.3,34.12,8.31l2.38.4c3.61.73,7.18,1.66,10.69,2.79,9.44,2.78,22.35,6.6,28.17,3.17,6.4-3.76,17.34-25.96,19.24-33.99,2.5-10.64,1.72-22.25-2.3-34.49-7.05-21.55-19.89-32.38-34.75-44.99-4.72-3.99-9.56-8.1-14.5-12.77-9.1-8.63-26.09-24.73-20.42-40.09,5.68-15.37,30.6-18.51,43.98-20.3l.9-.12c19.37-2.54,38.72.46,57.43,3.38,12.56,1.96,25.57,3.97,38.42,4.3,13.41.31,26.69,1.85,39.54,3.31,16.64,1.91,33.85,3.88,50.94,3.11,21.27-.94,38.32,6.12,52.19,13.15,6.99,3.54,13.78,7.45,20.97,11.58l5.65,3.25c12.41,7.07,25.57,11.93,38.32,16.62,10.64,3.92,21.62,7.97,32.11,13.28ZM403.43,785.79c6.66,3.48,13.81,5.94,21.2,7.3,25.81,4.32,52.01,5.81,78.14,4.46,16.99-.83,38.28-8.39,57.06-15.08,5.74-2.04,11.27-4,16.36-5.69,10.25-3.35,20.46-7.84,30.35-12.19,13.26-5.82,26.97-11.84,40.74-15.08,13.09-3.08,15.48-6.17,15.77-7.73.65-3.79-8.14-9.46-15.89-14.47-5.81-3.76-11.85-7.65-15.98-11.73l-.87-.87.57-1.12c5.78-11.26.58-22.6-4.92-34.61-5.09-11.08-10.34-22.55-7.04-34.62,7.04-25.8,26.64-46.47,43.94-64.72l1.11-1.18c17.04-17.98,34.35-35.39,58.48-50.12,9.73-5.9,20.6-7.53,31.17-9.12,14.59-2.19,28.39-4.24,37.31-17.39,5.61-8.27,7.01-15.92,8.63-24.77.7-3.87,1.44-7.85,2.57-12.11,2.06-7.67,5.32-15.13,8.48-22.35,2.42-5.51,4.94-11.26,6.82-16.94,10.3-31.05,14.16-61.6,10.29-81.7-1.93-10.06-5.55-17.16-9.73-25.38-1.38-2.71-2.82-5.52-4.22-8.53-5.39-11.52-5.15-21.71-4.82-33.49.05-2.17.12-4.38.14-6.67.03-2.29.11-4.64.21-7.06.28-9.42.65-20.06-2.08-29.14-2.77-9.35-6.98-12.05-12.3-15.48-4.01-2.38-7.66-5.34-10.82-8.77-2.52-2.83-3.42-6.01-4.2-8.87-.39-1.91-1.15-3.72-2.24-5.33-2.23-2.7-5.21-4.59-8.37-6.57-3-1.89-6.1-3.83-8.51-6.56-7.71-8.72-7.44-19.16-7.15-30.21.06-2.52.14-5.08.1-7.66-.03-4.37.96-9.9,2.04-15.74,1.54-8.43,3.3-17.96,1.2-22.98-2.55-6.05-17.16-13.86-25.86-18.52-1.99-1.06-3.72-1.99-5.03-2.74-12.26-7.02-25.37-11.86-38.09-16.54-12.87-4.75-26.2-9.64-38.82-16.86l-5.67-3.26c-7.15-4.11-13.91-8.01-20.81-11.5-13.49-6.83-30.04-13.69-50.53-12.78-17.35.77-34.69-1.23-51.46-3.14-12.74-1.45-25.99-2.97-39.26-3.29-13.07-.31-26.18-2.36-38.85-4.34-18.47-2.89-37.57-5.87-56.47-3.38l-.91.12c-12.71,1.68-36.38,4.79-41.3,18.12-4.92,13.32,11.03,28.45,19.53,36.57,4.86,4.61,9.69,8.7,14.35,12.65,15.26,12.93,28.42,24.1,35.77,46.5,4.21,12.83,5.03,25.02,2.37,36.3-1.78,7.58-12.98,31.49-20.79,36.12-7.07,4.17-20.24.28-30.82-2.85-3.38-1.08-6.81-1.98-10.28-2.7l-2.39-.39c-12.44-2.04-22.35-3.69-34.77-8.51l-1.51-.59c-5.36-2.08-9.98-3.87-14.07-5.94-8.65-4.38-14.31-9.92-19.54-19.07-9.33-16.3-11.57-16.17-22.73-17.35-2.96-.32-6.63-.71-11.11-1.46-7.16-1.26-14.09-3.62-20.54-6.98-10.15-5.14-19.31-12.19-28.16-19-7.27-5.6-14.09-10.85-21.35-15.08-17.8-10.37-41.3-9.86-61.91-9.41-5.28.11-10.23.24-15.13.2-2.98-.02-6.04-.09-9.17-.16-23.71-.46-50.62-.94-71.57,9.02-6.73,3.22-10.36,6.55-11.44,10.53-1.07,3.97.54,9.26,5.02,15.81,2.77,4.26,6.61,7.71,11.14,10.02,3.82,1.77,7.82,3.15,11.93,4.1,4.6,1.12,9.09,2.63,13.44,4.51,12.97,5.91,13.3,12.36,13.75,20.69.11,3.92.59,7.82,1.41,11.66,2.02,8.8,7.29,15.4,12.87,22.39,2.56,3.21,5.22,6.53,7.58,10.14,1.75,2.66,3.33,5.2,4.85,7.66,4.71,7.66,8.79,14.26,16.3,21.18,11.62,10.7,15.15,15.18,20.51,31.51,8.76,26.72,20.55,43.42,40.64,57.67,21.04,14.63,43.66,26.84,67.43,36.42,15.23,6.05,19.76,12.72,27.89,24.99l2.11,3.18c3.78,5.66,9.87,9.35,15.68,12.88,5.67,3.44,11.02,6.71,13.84,11.51,5.11,8.82,1.46,18.03-1.74,26.15-1.45,3.3-2.6,6.74-3.42,10.25-1.82,9.83-.33,28.36,4.39,38.44,1.21,2.59,3.18,4.56,5.29,6.63,2.46,2.45,5.02,4.99,6.32,8.66,1.4,3.89,1.38,7.56,1.39,11.13-.15,3.14.19,6.28,1.02,9.31,2.25,6.95,7.2,13.69,12,20.21,2.5,3.41,5.09,6.94,7.27,10.43,1.52,2.47,3.31,5.1,5.17,7.83,6.3,9.27,13.42,19.77,14.69,30.12.78,6.37.25,13.28-.27,19.96-.48,5.07-.69,10.16-.64,15.25.17,5.89-1.24,12.94-2.73,20.4-3.3,16.5-6.71,33.57,6.22,40.12,1.28.64,2.61,1.16,3.99,1.55,4.22,1.21,8.38.62,12.78,0,6.39-.91,13.08-1.84,20.02,2.96,8.42,5.82,12,18.1,11.81,27.68v.49s-8.58,13.09-8.58,13.09c-2.82,4.22-6.09,8.12-9.75,11.64-2.62,2.57-5.06,5.31-7.31,8.2,1.93,3,3.69,6.11,5.28,9.31,3.09,6.06,5.79,11.25,13.32,16.62,3.79,2.69,7.77,5.1,11.92,7.2Z"/>
      </g>
    </mask>
    <mask id="mask-1" x="66.38" y="51.75" width="746.14" height="743.03" maskUnits="userSpaceOnUse">
      <g id="path-2-inside-2_441_31" data-name="path-2-inside-2 441 31">
        <path class="cls-3" d="M668.23,92.4c6.12,3.1,10.26,7.45,14.68,11.94s8.75,9.07,15.49,13c1.63.95,3.12,1.78,4.45,2.55,12.65,7.16,13.62,8.14,14.46,26.68.18,3.46.27,6.8.37,9.99.39,12.22.73,22.77,3.77,35.49.43,1.81.85,3.71,1.27,5.67,2.51,11.55,5.36,24.64,14.85,31.48,3.66,2.65,8.36,4.23,12.68,5.65,3.11.9,6.13,2.06,9.05,3.46,5,2.53,9.12,6.51,11.82,11.42,4.74,8.14,4.66,15.61,4.58,23.5-.18,4.64.08,9.28.77,13.87,1.99,11.35,8.27,19.77,14.92,28.68,2.3,3.08,4.68,6.27,6.9,9.62,16.52,24.9,7.62,46.73-1.81,69.85-1.47,3.58-2.95,7.24-4.43,10.96-2.31,6.02-5.3,12.2-8.17,18.18-4.27,8.82-8.67,17.95-11.09,26.88-.92,3.59-1.61,7.24-2.08,10.92-1.34,9.05-2.49,16.86-12.74,25.84-7.96,6.97-18.99,12.97-28.73,18.26-2.27,1.23-4.48,2.44-6.58,3.61-15.51,8.69-20.98,13.08-32.58,26.1-4.64,5.22-10.49,9.1-16.15,12.85-6.4,4.25-13.01,8.64-17.67,14.92-8.9,11.9-17.78,25.56-23.7,34.8-2.52,3.93-5.32,7.95-8.04,11.82-11.57,16.55-23.55,33.66-20.3,53.68.32,1.97.7,3.72,1.04,5.42,1.02,4.84,1.89,9.01.87,14.48-.54,2.63-1.56,5.14-2.99,7.4-1.53,2.68-2.63,4.63-1.61,8.28,1.44,5.1,7.6,9.63,13.57,14.01,4.46,3.27,8.67,6.37,11.03,9.76,4.89,7.04,6.45,12.83,4.77,17.72-2.85,8.26-14.56,11.86-25.86,15.33-4.99,1.4-9.88,3.12-14.65,5.15-1.75.82-4.54,2.32-8.09,4.2-22.45,12.01-47.26,24.34-57.52,19.15-.87-.43-1.65-1.02-2.31-1.74l-27.08,6.44-.38-.08c-9.42-2.13-18.97-2.88-28.26-3.5-13.51-.97-27.48-1.98-41.56-7.42-2.86-1.11-5.51-2.27-7.86-3.47-26.95-13.66-19.49-33.47-10.81-56.43.99-2.64,1.99-4.97,2.88-7.07,4.31-10.09,5.9-13.86-5.12-22.52-1.48-1.15-3.07-2.15-4.74-3-4.08-2.07-8.36-3.11-12.86-4.27-5.56-1.39-11.35-2.84-16.66-6.31-13.79-8.98-13.56-31.16-13.36-50.73.06-6.77.13-13.17-.37-18.63-2.18-23.57-12.12-44.41-21.75-64.52-9.74-20.35-19.8-41.39-22.09-65.56-.64-6.82.66-13.7,1.94-20.36,1.07-5.62,2.18-11.43,2.09-17.17-.06-3.52.3-7.81.65-12.36.72-8.69,1.54-18.54-.54-24.31-1.94-5.39-6.92-8.79-12.19-12.39-5.27-3.6-10.95-7.49-13.88-13.77-1.18-2.68-1.46-5.67-.81-8.52.49-3.35.82-5.56-4.76-8.96-.3-.15-.58-.29-.89-.45-3-1.52-5.09-.86-7.74-.02-2.64,1.06-5.51,1.37-8.31.89-2.23-.46-4.38-1.21-6.41-2.24-4.27-2.16-7.57-5.3-10.75-8.32-3.18-3.03-6.19-5.88-10.09-7.86-1.67-.85-3.44-1.49-5.28-1.91-2.94-.67-5.5-.23-8.27.2-3.68.62-7.51,1.23-12.35-.64-4.21-1.64-13.92-9.67-16.91-12.44-6.8-6.28-11.89-12.99-17.27-20.1-3.3-4.35-6.74-8.86-10.6-13.34-6.62-7.63-9.11-14.86-11.75-22.52-1.24-3.82-2.68-7.57-4.32-11.24-7.12-15.32-18.83-28.57-30.16-41.4-7.86-8.88-15.25-17.25-21.24-26.26-4.15-6.22-5.98-12.75-7.76-19.05-1.63-5.78-3.17-11.22-6.38-16.23-2.07-2.97-4.45-5.72-7.08-8.2-7-7.1-14.95-15.14-6.15-26.78,14.13-18.73,71.4-4.03,82.74-.89,5.51,1.52,11.47,3.04,17.63,4.61,19.77,5.02,42.17,10.72,58.93,19.14,8.43,4.27,11.14,9.68,13.78,14.92,2.08,4.14,4.05,8.06,8.76,11.54,5.04,3.75,14.16,6.51,22.81,8.98,6.87,1.96,13.9,3.97,19.51,6.81,25.02,12.68,49.08,20.01,75.88,23.13,24.66,2.88,45.54-22.27,51.49-48.25,2.49-10.89,1.04-32.5-1.05-42.58-1.05-4.29-2.43-8.49-4.14-12.56-3.19-8.3-6.81-17.7-5.61-27.24.29-3.02,1.24-5.93,2.78-8.55,1.54-2.61,3.62-4.86,6.12-6.58,16.97-11.83,53.26-3.46,70.71.57l.43.09c5.1,1.18,9.44,2.54,13.3,3.7,9.39,2.88,16.81,5.15,29.26,3.59,21.31-2.61,41.44-5.09,62.82,4.82,16.67,7.72,28.62,9.36,45.13,11.64,2.82.39,5.78.79,8.87,1.25,4.47.58,8.82,1.9,12.86,3.91ZM739.77,234.47c-1.45-.73-2.84-1.57-4.16-2.51-10.54-7.59-13.53-21.36-16.17-33.49-.42-1.93-.84-3.79-1.25-5.6-3.13-13.06-3.47-23.76-3.87-36.16-.11-3.18-.21-6.48-.37-9.95-.78-17.15-.99-17.26-12.75-23.91-1.35-.77-2.85-1.61-4.48-2.57-7.16-4.16-11.77-8.94-16.23-13.56-4.18-4.36-8.15-8.46-13.76-11.31-3.7-1.82-7.67-3.03-11.76-3.57-3.13-.46-6.04-.82-8.84-1.23-16.18-2.22-28.97-3.96-46.1-11.91-20.51-9.51-39.28-7.2-61.01-4.53-13.16,1.6-20.85-.76-30.66-3.78-3.98-1.22-8.09-2.48-13.08-3.63l-.42-.1c-16.97-3.92-52.29-12.07-68.03-1.08-2.12,1.45-3.88,3.35-5.18,5.56-1.3,2.21-2.08,4.69-2.31,7.24-1.05,8.72,2.22,17.3,5.42,25.61,1.77,4.24,3.2,8.62,4.29,13.08,2.2,10.63,3.66,32.51,1.04,44.01-6.23,27.47-28.62,53.92-55.13,50.83-26.79-3.04-52.8-10.95-76.75-23.33-5.6-2.84-12.52-4.82-19.2-6.73-8.94-2.55-18.36-5.43-23.88-9.51-5.37-3.97-7.61-8.43-9.78-12.74-2.5-4.97-4.86-9.67-12.18-13.37-16.56-8.31-38.76-13.96-58.35-18.94-6.21-1.58-12.19-3.1-17.71-4.63-24.4-6.75-68.52-14.43-79.16-.33-7.06,9.34-1.07,15.41,5.85,22.42,2.82,2.66,5.35,5.6,7.57,8.78,3.45,5.41,5.13,11.36,6.75,17.11,1.7,6.05,3.47,12.31,7.33,18.1,5.86,8.82,13.19,17.12,20.95,25.9,11.49,13.01,23.37,26.45,30.68,42.22,1.69,3.77,3.18,7.62,4.46,11.55,2.52,7.34,4.9,14.28,11.1,21.42,3.98,4.58,7.42,9.12,10.74,13.51,5.3,6.99,10.3,13.58,16.88,19.65,3.37,3.12,12.28,10.4,15.86,11.78,3.97,1.55,7.19,1.02,10.58.47,3.14-.71,6.39-.77,9.55-.17,2.1.47,4.13,1.21,6.05,2.19,4.34,2.2,7.67,5.36,10.89,8.42,3.21,3.05,6.13,5.81,9.96,7.76,1.76.9,3.64,1.56,5.58,1.95,2.53.52,4.54-.1,6.64-.78,2.83-.9,6.04-1.92,10.26.22.35.18.71.36,1.07.6,7.47,4.55,6.84,8.66,6.33,12.31-.32,2.14-.63,4.17.53,6.62,2.55,5.46,7.73,8.99,12.79,12.45,5.48,3.74,11.14,7.62,13.45,14.02,2.31,6.39,1.48,16.7.72,25.73-.36,4.46-.69,8.64-.66,12.02.1,6.08-1.05,12.07-2.15,17.86-1.28,6.71-2.48,13.04-1.88,19.39,2.22,23.59,12.16,44.36,21.78,64.43,9.75,20.38,19.82,41.5,22.06,65.65.51,5.63.45,12.11.38,18.97-.18,18.71-.4,39.91,11.84,47.89,4.88,3.16,10.09,4.47,15.65,5.86,4.68,1,9.22,2.52,13.56,4.54,1.87.94,3.64,2.06,5.29,3.35,13.07,10.24,10.6,16,6.13,26.46-.88,2.06-1.85,4.34-2.83,6.93-9.64,25.52-13.97,40.53,9.18,52.26,2.25,1.14,4.8,2.26,7.55,3.33,13.62,5.26,27.33,6.26,40.6,7.22,9.26.67,18.83,1.36,28.38,3.49l28.5-6.78.63.97c.46.66,1.09,1.19,1.82,1.53,9.57,4.85,39.84-11.26,54.41-19.05,3.59-1.91,6.42-3.42,8.25-4.28,4.9-2.12,9.94-3.92,15.08-5.38,10.51-3.22,21.38-6.57,23.68-13.22,1.33-3.82-.13-8.61-4.34-14.7-2.03-2.93-6.02-5.86-10.26-8.97-6.41-4.72-13.1-9.61-14.8-15.8-1.4-5,.29-7.97,1.92-10.84,1.24-1.95,2.13-4.1,2.61-6.36.89-4.82.11-8.51-.86-13.19-.36-1.72-.74-3.55-1.07-5.58-3.46-21.36,8.91-39.04,20.87-56.13,2.69-3.85,5.48-7.83,7.96-11.69,5.94-9.28,14.87-23.01,23.83-34.99,5.03-6.73,11.9-11.28,18.52-15.7,5.75-3.83,11.15-7.4,15.5-12.29,11.9-13.38,17.53-17.88,33.45-26.79,2.1-1.18,4.32-2.39,6.61-3.63,9.6-5.25,20.44-11.13,28.14-17.85,9.32-8.16,10.34-15.06,11.63-23.8.47-3.81,1.19-7.59,2.14-11.32,2.45-9.26,6.96-18.5,11.29-27.46,2.86-5.92,5.81-12.04,8.06-17.92,1.45-3.76,2.96-7.48,4.41-11.05,9.51-23.21,17.65-43.29,2.12-66.72-2.17-3.27-4.52-6.41-6.79-9.46-6.9-9.24-13.42-17.96-15.54-30.1-.72-4.79-1-9.64-.81-14.49.08-7.43.15-14.44-4.12-21.78-2.38-4.35-6.02-7.88-10.44-10.12-2.76-1.31-5.63-2.39-8.57-3.22-3.24-.94-6.4-2.14-9.44-3.6Z"/>
      </g>
    </mask>
    <mask id="mask-2" x="113.89" y="67.81" width="674.03" height="715.58" maskUnits="userSpaceOnUse">
      <g id="path-3-inside-3_441_31" data-name="path-3-inside-3 441 31">
        <path class="cls-3" d="M655.91,106.46c3.15,1.59,6.36,3.4,9.6,5.43,17.18,10.69,18.43,12.07,26.85,29.51,7.32,15.15,8.55,20.58,10.66,37.19.49,3.88.85,8.58,1.26,14.02,1.54,20.12,3.65,47.67,14.84,58.79,2.23,2.25,5.73,3.19,9.43,4.02,3.7.83,7.87,2,10.65,4.54,2.05,1.88,2.98,4.74,3.87,7.51.73,2.24,1.41,4.35,2.59,5.74,2.35,2.76,4.52,5.18,6.55,7.44,6.68,7.43,11.96,13.3,17.16,24.71,5.89,12.92,8.39,22.52,11.18,36.8,3.45,17.78,3.63,24.07-2.84,40.44-4.39,11.14-7.77,23.38-11.05,35.23l-1.44,5.18c-2.8,9.95-7.24,16.07-11.97,22.52-2.73,3.58-5.23,7.32-7.49,11.2-2.16,3.92-4.08,7.97-5.75,12.12-3.01,7.17-5.2,12.34-14.25,19.74-5.24,4.29-10.8,8.58-16.18,12.74-5.87,4.53-11.94,9.23-17.5,13.82-21.08,17.73-40.83,36.98-59.09,57.6-12.61,14.37-19.47,28.99-26.73,44.48-3.86,8.21-7.83,16.69-12.8,25.26-.91,1.56-2.16,4.39-3.49,7.38-2.29,5.13-4.65,10.43-6.51,12.43-4.17,4.45-7.4,5.24-10.79,6.01-2.44.49-4.79,1.31-7.01,2.44-9.53,4.94-14.19,9.2-14.23,13.01-.04,3.03,2.95,6.21,8.88,9.47l.31.16c2.73,1.39,6.17,1.7,9.49,1.99,3.64.33,7.41.7,10.41,2.42,3.46,1.82,6.13,4.84,7.51,8.49.64,1.76,1.68,3.34,3.05,4.61,1.73,1.43,3.54,2.76,5.41,4,8.14,5.61,19.29,13.29,11.81,25.44-4.74,7.71-27.37,15.14-45.53,21.13-6.55,2.15-12.2,4-15.36,5.37-30.06,13.03-53.27,15.01-70.96,6.04-.81-.41-1.63-.82-2.41-1.31l-20.16-.11c-2.56,2.62-20.42-6.25-20.64-6.36-3.57-1.81-6.02-3.43-7.22-4.78-8.85-9.98-4.75-18.37,0-28.09,1.93-3.57,4.17-6.97,6.7-10.14,4.1-5.5,8.34-11.18,9.08-16.98,1.04-8.18-2.74-12.14-7.14-16.73-2.74-2.87-5.58-5.84-7.43-10.02-1.36-3.34-1.95-6.94-1.72-10.54.01-4.32-.14-6.48-3.54-8.21-1.14-.55-2.33-.98-3.56-1.27-3.88-1.01-8.42,1.44-12.83,3.81-4.4,2.37-8.86,4.77-13.06,3.92-1.31-.26-2.57-.7-3.77-1.3-11.66-5.91-12.42-25.84-13.03-41.86-.04-4.54-.37-9.08-.98-13.58-.52-2.83-1.01-5.6-1.5-8.34-1.76-9.82-3.35-19.07-6.33-28.74-2.16-7.05-3.29-14.87-4.36-22.43-1.33-9.18-2.71-18.67-5.93-26.48-1.39-2.93-3.22-5.64-5.43-8.01-2.09-2.52-4.33-5.16-5.58-8.35-.82-2.09-.9-5.41-1-8.92.01-2.35-.16-4.69-.53-7.01-.78-3.65-1.67-6.83-2.53-9.91-2.25-8.07-4.2-15.06-2.46-25.16.92-5.35,1.98-10.29,3.01-15.07,1.84-8.56,3.59-16.64,4.29-26.08.33-3.9.92-7.78,1.77-11.61,1.73-8.38,2.3-11.19-8.77-19.05-2.41-1.71-4.54-3.13-6.41-4.37-10.58-7.11-13.79-9.23-15.14-26.18-.18-2.49.17-4.99,1.03-7.34.96-3.09,1.48-4.78-2.84-9.3-.95-.98-2.06-1.79-3.28-2.39-3.76-1.91-8.45-2.1-12.97-2.3l-2.49-.14c-4.87-.29-8.86-.25-12.32-.2-9.42.11-15.97.17-28.23-6.59l-3.07-1.69c-10.97-6.01-23.39-12.81-30.32-22.98-1.52-2.24-2.5-5.4-3.43-8.48s-1.86-6.06-3.18-7.61c-1.44-1.57-3.17-2.83-5.11-3.71-.79-.4-1.58-.8-2.41-1.16-.83-.36-1.7-.79-2.54-1.22-2.65-1.21-5.01-2.98-6.92-5.19-3.83-4.74-6.04-10.82-8.18-16.71-2.39-6.6-4.87-13.43-9.61-18.13-3.88-3.84-8.35-6.33-13.07-8.98-6.47-3.61-13.13-7.34-18.02-14.75-1.85-2.82-2.95-6.37-4.02-9.8-1.2-3.82-2.42-7.77-4.65-10.58-2.35-2.8-5.09-5.24-8.14-7.25-2.7-1.82-5.19-3.93-7.44-6.29-7.33-8.12-9.51-15.13-6.48-20.84,6.03-11.36,31.73-13.44,47.21-11.27,3.84.55,7.57,1.75,11.01,3.54,6.26,3.17,11.71,7.91,16.89,12.45,2.24,1.96,4.46,3.89,6.73,5.66,1.5,1.19,2.9,2.46,4.29,3.72,2.54,2.55,5.42,4.73,8.56,6.49,1.12.57,2.3,1.04,3.51,1.39,2.93.88,6.17.62,9.57.36,4.22-.35,8.57-.69,12.44,1.27,2.83,1.44,4.52,4.69,6.32,8.11,1.49,2.84,3.03,5.78,5,7.15,3.85,2.68,8.14,3.61,12.6,4.44,2.05.39,4.11.75,6.35,1.39,7.27,1.88,14.64,3.37,22.07,4.45,6.22,1.03,12.62,2.08,18.83,3.6,8.83,2.14,17.69,5.89,26.27,9.52,18.45,7.81,35.87,15.18,54.06,8.77,33.16-11.69,40.67-55.87,42.2-69.12.44-3.88.91-7.53,1.37-11.09,1.11-8.74,2.18-16.99,2.49-26.16.38-11.32-.77-16.39-2.68-24.78-.48-2.13-1.01-4.45-1.57-7.12-1.6-7.64-.72-12.97,2.65-16.32,4.01-3.94,11.34-4.64,22.31-2.17,5.59,1.32,11.11,2.96,16.52,4.9,7.27,2.46,14.13,4.79,22.94,5.71l16.17,1.72c23.44,2.5,45.64,4.89,68.28,6.45,4.58.32,8.94.56,13.08.78,22.18,1.24,39.69,2.23,60.23,12.64ZM720.34,256.35c-1.33-.66-2.55-1.54-3.61-2.58-12.06-12-14.22-40.27-15.8-60.91-.42-5.4-.77-10.07-1.25-13.86-2.05-16.17-3.25-21.45-10.35-36.16-8.17-16.92-8.89-17.72-25.6-28.13-3.13-1.94-6.25-3.71-9.31-5.26-19.92-10.1-37.08-11.04-58.92-12.29-4.2-.23-8.56-.48-13.16-.8-22.7-1.57-44.9-3.95-68.4-6.47l-16.16-1.72c-9.19-.96-16.26-3.37-23.67-5.88-5.3-1.91-10.69-3.52-16.17-4.82-9.67-2.18-16.14-1.74-19.22,1.3-2.48,2.44-3.07,6.89-1.74,13.24.55,2.65,1.08,4.95,1.56,7.06,1.89,8.36,3.16,13.89,2.74,25.63-.31,9.32-1.39,17.65-2.52,26.48-.45,3.53-.93,7.18-1.37,11.03-2.01,17.62-10.37,59.9-44.39,71.87-19.41,6.85-38.25-1.13-56.48-8.84-8.45-3.58-17.18-7.27-25.74-9.35-6.09-1.48-12.44-2.53-18.59-3.55-7.55-1.11-15.03-2.62-22.41-4.54-2.04-.58-4.09-.95-6.07-1.32-3.78-.53-7.47-1.61-10.94-3.22-1.03-.52-2.01-1.11-2.96-1.77-2.64-1.84-4.38-5.14-6.06-8.34-1.48-2.82-3.01-5.73-4.78-6.65-3.11-1.58-6.81-1.27-10.75-.95-3.52.3-7.27.57-10.81-.48-1.4-.42-2.76-.96-4.06-1.62-3.41-1.88-6.55-4.23-9.32-6.97-1.33-1.23-2.66-2.47-4.11-3.58-2.3-1.82-4.57-3.8-6.85-5.79-5.07-4.42-10.3-9-16.21-11.99-3.12-1.62-6.49-2.7-9.96-3.21-14.69-2.04-38.81.14-43.78,9.53-2.31,4.33-.28,10.07,5.98,17.02,2.09,2.18,4.41,4.14,6.92,5.82,3.3,2.18,6.28,4.82,8.83,7.84,2.6,3.31,3.91,7.6,5.22,11.63,1.05,3.36,2.03,6.52,3.62,8.96,4.39,6.72,10.43,10.11,16.84,13.69,4.72,2.63,9.59,5.35,13.8,9.52,5.23,5.2,7.88,12.41,10.4,19.36,2.13,5.89,4.15,11.45,7.62,15.75,1.62,1.83,3.61,3.3,5.84,4.31.8.41,1.62.82,2.44,1.18.83.36,1.68.8,2.5,1.21,2.34,1.07,4.43,2.6,6.17,4.5,1.76,2.07,2.75,5.34,3.82,8.8.83,2.8,1.76,5.73,3,7.55,6.48,9.52,18.52,16.13,29.16,21.93l3.07,1.69c11.51,6.37,17.32,6.29,26.59,6.17,3.54-.04,7.56-.09,12.54.2l2.46.12c4.66.2,9.9.41,14.37,2.68,1.52.77,2.9,1.78,4.09,3.01,5.32,5.51,4.89,8.57,3.65,12.59-.72,1.94-1.03,4.01-.9,6.07,1.23,15.3,3.39,16.76,13.68,23.67,1.88,1.27,4.03,2.71,6.48,4.41,12.39,8.79,12.07,12.98,10.11,22.48-.84,3.73-1.41,7.52-1.71,11.33-.73,9.68-2.47,17.84-4.37,26.55-1.02,4.74-2.07,9.65-2.98,14.91-1.6,9.37.16,15.69,2.4,23.68.87,3.12,1.77,6.35,2.57,10.1.41,2.53.62,5.09.61,7.66.07,3.07.19,6.27.77,7.78,1.04,2.68,2.98,4.98,5.03,7.42,2.21,2.65,4.51,5.37,5.96,8.88,3.37,8.19,4.79,17.9,6.15,27.28,1.08,7.43,2.2,15.12,4.29,21.92,3.03,9.86,4.68,19.22,6.44,29.1.49,2.74.97,5.5,1.5,8.32.62,4.67.94,9.39.96,14.1.58,14.36,1.3,33.99,11.2,39.01.92.46,1.9.8,2.92,1.01,3.05.63,6.8-1.43,10.8-3.59,4.96-2.68,10.09-5.45,15.26-4.11,1.46.36,2.87.88,4.22,1.53,5.41,2.74,5.41,7.05,5.37,11.21,0,2.89-.02,5.89,1.44,9.18,1.62,3.65,4.25,6.4,6.8,9.06,4.57,4.77,9.28,9.7,8.03,19.48-.85,6.66-5.32,12.72-9.7,18.55-2.41,3.01-4.54,6.23-6.38,9.62-4.56,9.34-7.86,16.09-.51,24.39.52.59,2.02,1.89,6.24,4.03,4.8,2.4,9.78,4.43,14.89,6.09l2.44-.07,22.94.13.4.2c.86.52,1.74,1,2.64,1.45,16.75,8.49,39.02,6.49,68.11-6.12,3.3-1.43,9.01-3.3,15.64-5.49,15.79-5.19,39.66-13.03,43.75-19.69,5.38-8.74-1.4-14.41-10.84-20.92-1.98-1.31-3.89-2.72-5.71-4.24-1.73-1.59-3.07-3.57-3.91-5.77-1.09-3.01-3.28-5.49-6.14-6.95l-.46-.23c-2.32-1.17-5.36-1.45-8.57-1.73-3.64-.33-7.4-.66-10.71-2.34l-.41-.21c-7.2-3.94-10.67-8.02-10.62-12.44.11-6.87,9.19-12.4,16.03-15.95,2.46-1.25,5.08-2.16,7.78-2.72,3.28-.78,5.64-1.34,9.11-5.04,1.46-1.57,3.89-7.01,5.88-11.47,1.37-3.07,2.67-5.97,3.66-7.69,4.86-8.44,8.82-16.87,12.68-25.03,7.37-15.71,14.35-30.53,27.25-45.26,18.37-20.76,38.25-40.14,59.47-57.98,5.6-4.64,11.69-9.35,17.58-13.91,5.36-4.14,10.9-8.42,16.12-12.67,8.4-6.87,10.31-11.49,13.27-18.44,1.73-4.27,3.71-8.42,5.94-12.45,2.31-3.99,4.87-7.84,7.66-11.52,4.54-6.2,8.83-12.07,11.44-21.45l1.48-5.15c3.3-11.93,6.69-24.28,11.15-35.57,6.18-15.65,6.01-21.28,2.63-38.58-2.75-14.02-5.19-23.45-10.93-36.05-4.98-10.94-10.11-16.64-16.6-23.86-2.06-2.28-4.25-4.71-6.62-7.51-1.58-1.92-2.41-4.41-3.25-6.88-.84-2.47-1.55-4.8-2.95-6.08-2.23-2.05-5.59-2.95-9.12-3.75-2.59-.47-5.11-1.26-7.51-2.36h.02Z"/>
      </g>
    </mask>
    <mask id="mask-3" x="215.63" y="91.89" width="552.31" height="664.19" maskUnits="userSpaceOnUse">
      <g id="path-4-inside-4_441_31" data-name="path-4-inside-4 441 31">
        <path class="cls-3" d="M631.5,122.12c1.28.65,2.52,1.37,3.73,2.16,10.82,6.97,17.24,16.73,24.1,30.19,13.75,27.19,10.27,49.64,6.21,75.68-.5,3.2-1,6.49-1.51,9.86-.33,2.29-.86,4.98-1.44,7.89-2.17,10.92-5.09,25.91.33,33.33,1.6,2.33,3.74,4.24,6.23,5.58,7.92,4.01,17.24-1.04,25.47-5.49,1.41-.76,2.75-1.49,4.05-2.15,10.07-5.12,19.61-5.45,28.48-.96,10.26,5.2,19.26,16.5,27.5,34.55,9.98,21.91,10.91,44.25,2.96,72.54-3.56,12.67-7.59,27.03-14.61,40.04-2.45,4.55-4.42,8.99-6.47,13.64-3,7.24-6.57,14.22-10.67,20.9-10.34,16.19-25.58,27.71-40.31,38.85-7.57,5.72-15.4,11.64-22.4,18.08-6.01,5.54-12.94,10.21-19.65,14.75-5,3.37-10.2,6.83-14.83,10.62-11.9,9.62-19.7,21.14-27.39,33.04-3.27,5.42-6.09,11.1-8.44,16.98-3.13,7.29-6.39,14.83-11.66,21.72-4.81,6.29-10.86,11-16.7,15.55-5.03,3.91-9.79,7.61-13.85,12.26l-23.26,18.16c-.08.98-1.01,2.16-3.7,5.51-2.69,3.34-6.49,8.04-7.34,10.75-3.06,9.75-2.66,10.26,4.01,18.69l.27.34c3.16,4.02,7.19,7.29,11.79,9.54,4.18,1.98,8.52,3.61,12.97,4.88,4.77,1.37,9.41,3.12,13.89,5.26,1.39.7,2.74,1.48,4.05,2.32,9.72,6.27,14.08,13.42,11.96,19.62-2.2,6.4-10.89,9.9-22.16,8.91-3.74-.33-6.77-.87-9.71-1.41-6.09-1.1-10.9-1.96-18.95-.29-3.61.8-7.16,1.83-10.64,3.07-4.98,1.68-10.15,3.41-16.03,3.78-6.45.44-22.59.78-34.02-5.01-3.24-1.56-6.09-3.82-8.35-6.61-7.43-9.48-3.84-16.62-.1-24.19,2.12-3.83,3.74-7.92,4.82-12.16,2.93-13.27-12.19-43.54-29.14-52.13-2.16-1.16-4.54-1.86-6.99-2.05-3.95-.24-7.82,1.89-11.57,3.94-4.84,2.67-9.86,5.42-14.98,2.82-2.23-1.24-4.11-3.03-5.46-5.2-3.95-5.77-2.52-17.19-1.23-27.23.53-3.56.85-7.15.96-10.75-.27-18.11-4.04-34.13-7.94-51.09-1.73-7.51-3.5-15.26-5.07-23.25-1.66-8.94-.8-18.05.02-26.87.78-6.43,1.06-12.92.85-19.4-.47-7.76-3.19-14.77-5.81-21.55-3.05-7.88-5.92-15.36-5.59-23.83.43-10.36,4.52-18.59,8.47-26.57,6.49-13.1,12.1-24.41-1.47-41.71-3.16-3.83-6.7-7.32-10.58-10.41-6.87-5.82-13.36-11.32-15.48-23.08-.66-3.65.22-6.71.99-9.41,1.1-3.86,2.06-7.18-1.23-11.99-1.1-1.32-2.49-2.37-4.07-3.05-4.15-2.1-9.92-3.56-13.01-4.35l-.36-.09c-4.64-1-9.36-1.57-14.11-1.7-7.62-.49-15.47-.95-22.33-4.43-1.69-.85-3.28-1.88-4.76-3.07-2.97-2.41-4.75-5.47-6.47-8.42-1.71-2.96-3.36-5.78-5.97-7.26-2.64-1.34-6.4-1.11-10.04-.89-2.5.24-5.03.23-7.53-.04-5.31-.72-10.48-2.27-15.32-4.58-7-3.55-12.24-9.1-16.51-17.5-3.29-6.44-10.86-27.19-6.35-37.05,7.52-16.41,36.71-3.73,60.17,6.47,8.34,3.63,15.57,6.77,20.24,7.87,5.31,1.4,10.52,3.13,15.62,5.17,8.42,3.15,17.12,6.43,25.04,6.73,4.65.17,8.34-1.74,12.23-3.77,3.29-1.7,6.68-3.47,10.65-3.85,3.98-.38,7.31,1.3,10.33,2.76,2.57,1.3,5.05,2.45,7.36,2.18,8.87-1.02,30.53-13.31,37.15-19.37,9.87-8.99,20.85-28.75,23.04-41.46,2.19-12.71,1.48-26.63.78-40.05-.7-13.42-1.41-27.67.88-40.37,1.09-6.01,3.8-10.43,8.02-13.04,10.18-6.38,27.26-1.6,42.33,2.62,6.65,1.86,12.92,3.62,17.78,4.16,7.95.89,15.34,1.04,23.21,1.11,4.78.07,9.73.13,14.87.4,8.29.42,15.4,3.38,22.27,6.23,5.85,2.44,11.38,4.73,17.45,5.47,6.46.77,11.68.1,16.71-.52,7.49-.9,14.49-1.84,23.34,2.65ZM667.62,289.84c-2.95-1.58-5.49-3.84-7.41-6.59-6.28-8.61-3.31-23.77-.88-35.94.55-2.84,1.07-5.48,1.4-7.73.5-3.38,1.01-6.67,1.51-9.89,4.12-26.51,7.39-47.45-5.89-73.64-6.6-13-12.73-22.38-22.91-28.95-9.6-6.18-16.56-5.31-24.8-4.26-5.8.95-11.7,1.13-17.54.56-6.48-.77-12.49-3.26-18.3-5.68-6.6-2.75-13.44-5.6-21.15-5.99-5.08-.25-10-.33-14.75-.4-7.94-.11-15.43-.23-23.54-1.12-5.13-.59-11.53-2.37-18.31-4.27-14.4-4.04-30.72-8.6-39.65-3.01-3.45,2.15-5.58,5.69-6.49,10.8-2.25,12.34-1.53,26.18-.85,39.6.7,13.64,1.42,27.75-.83,40.83-2.26,13.32-13.77,33.97-24.08,43.36-6.48,5.92-28.63,18.99-39.02,20.18-3.28.37-6.29-1.09-9.2-2.5-2.91-1.41-5.61-2.72-8.55-2.43-3.33.31-6.29,1.86-9.42,3.48-4.12,2.14-8.37,4.34-13.91,4.18-8.48-.31-17.44-3.68-26.1-6.95-4.96-1.99-10.04-3.68-15.21-5.05-4.97-1.17-12.31-4.36-20.81-8.07-20.93-9.11-49.62-21.6-55.77-8.14-3.51,7.63,2.14,25.99,6.29,34.14,3.99,7.84,8.63,12.79,15.04,16.04,4.52,2.16,9.36,3.59,14.33,4.26,2.26.23,4.54.23,6.81,0,4.09-.24,8.31-.49,11.55,1.15l.36.18c3.4,1.93,5.34,5.26,7.21,8.48,1.57,2.71,3.19,5.49,5.68,7.51,1.29,1.04,2.69,1.94,4.17,2.68,6.26,3.17,13.76,3.61,21.01,4.08,4.95.17,9.88.78,14.71,1.84l.35.09c3.23.81,9.24,2.32,13.72,4.6,2.08.92,3.9,2.34,5.29,4.13,4.18,6.11,2.86,10.73,1.69,14.81-.74,2.57-1.42,5.02-.92,7.88,1.92,10.59,7.68,15.47,14.35,21.12,4.06,3.23,7.77,6.89,11.07,10.9,14.87,18.96,8.54,31.74,1.82,45.27-3.79,7.65-7.72,15.56-8.11,25.21-.33,7.8,2.44,14.93,5.37,22.48,2.72,7,5.53,14.27,6.03,22.56.22,6.65-.06,13.31-.85,19.91-.8,8.58-1.63,17.47-.06,25.95,1.47,7.89,3.25,15.61,4.99,23.07,3.98,17.17,7.73,33.37,8.02,51.8-.1,3.75-.43,7.49-1,11.2-1.14,9.01-2.56,20.21.67,24.93,1.04,1.69,2.49,3.1,4.21,4.1,3.57,1.81,7.39-.32,11.85-2.78,3.97-2.18,8.49-4.68,13.43-4.33,2.9.23,5.73,1.05,8.3,2.41,17.08,8.66,34.41,39.96,30.9,55.84-1.15,4.48-2.87,8.8-5.1,12.85-3.76,7.41-6.42,12.78-.32,20.59,1.96,2.4,4.43,4.34,7.23,5.67,10.72,5.43,26.17,5.1,32.31,4.7,5.45-.36,10.18-1.94,15.19-3.62,3.61-1.28,7.29-2.34,11.03-3.17,8.76-1.76,14.06-.83,20.26.3,2.85.51,5.81,1.05,9.4,1.39,9.53.83,17.04-1.84,18.7-6.67,1.55-4.55-2.41-10.43-10.61-15.72-1.21-.78-2.46-1.49-3.74-2.14-4.32-2.05-8.8-3.73-13.39-5.04-4.62-1.33-9.13-3.03-13.47-5.09-5.02-2.49-9.42-6.06-12.89-10.45l-.28-.34c-6.94-8.75-8.23-10.35-4.61-21.78,1.04-3.32,4.86-8.05,7.93-11.85,1.17-1.45,2.6-3.23,2.97-3.88l-.5-.76,24.82-19.34c4.05-4.69,9.14-8.64,14.08-12.49,5.68-4.42,11.56-8.99,16.11-14.94,5.02-6.57,8.17-13.91,11.23-21.01,2.42-6.04,5.33-11.88,8.7-17.45,7.8-12.17,15.82-23.92,28.11-33.85,4.77-3.86,10.01-7.39,15.06-10.79,6.6-4.45,13.42-9.06,19.25-14.42,7.1-6.51,15.02-12.52,22.65-18.29,14.53-10.95,29.49-22.29,39.52-37.97,3.99-6.54,7.46-13.39,10.38-20.48,2-4.53,4.06-9.18,6.59-13.87,6.85-12.69,10.83-26.86,14.34-39.37,7.71-27.47,6.85-49.14-2.79-70.24-7.82-17.09-16.56-28.18-25.98-32.96-7.94-4.02-16.24-3.74-25.45.95-1.27.65-2.6,1.37-3.98,2.12-8.49,4.58-19.07,10.31-28.55,5.5h0ZM525.22,661.23l-1.19-1.73c-.06.33,0,.66.14.96.15.3.39.54.69.68.11.05.24.08.36.09h0Z"/>
      </g>
    </mask>
    <mask id="mask-4" x="290.99" y="117.25" width="453.67" height="546.77" maskUnits="userSpaceOnUse">
      <g id="path-5-inside-5_441_31" data-name="path-5-inside-5 441 31">
        <path class="cls-3" d="M607,158.22c9.45,4.79,15.91,11,20.28,19.56,5.94,11.57,3.69,19.84,1.31,28.58-1.37,4.92-2.73,10.04-2.64,16.03.04,3.39,1.39,6.76,2.68,10.03,1.71,4.33,3.48,8.8,2.46,13.6-.93,4.44-4.39,8.19-7.72,11.82-3.09,3.38-6.29,6.85-7.5,10.8-1.12,3.7-2.13,7.23-3.11,10.7-2.99,10.52-5.85,20.41-11.24,32.5-7,15.55-9.72,23.44,4.63,32.86,1.12.74,2.28,1.41,3.47,2.02,18.15,9.2,36.39-2.19,55.7-14.26,14.76-9.18,29.97-18.71,45.47-18.52,5.18-.09,10.32,1.01,15.01,3.21,20.09,10.18,13.66,41.48,9.4,62.18-.35,1.73-.7,3.39-1,4.95-1.24,6.27-2.08,12.66-2.97,19.43-2.74,20.71-5.61,42.09-20.13,58.51-8.96,10.06-22.06,18.59-31.12,24.12-12.1,7.35-21.87,15.69-32.18,24.48-1.93,1.58-3.8,3.24-5.77,4.89-11.8,9.99-21.82,21.9-31.46,33.43-8.73,10.42-17.74,21.18-27.97,30.29-6.11,5.41-10.98,11.92-15.72,18.19-4.02,5.6-8.43,10.9-13.2,15.87-5.01,5-10.5,8.87-15.82,12.62-5.32,3.75-10.88,7.65-15.8,12.65-6.66,6.73-22.7,19.72-35.47,20.22-3.48.24-6.96-.43-10.1-1.95-3.93-1.99-6.53-5.18-9.27-8.56-2.59-3.19-5.27-6.48-9.34-9.05-5.61-3.55-13.11-4.54-20.4-5.52-7.48-1.02-15.23-2.1-20.83-5.86-7.22-4.87-8.55-12.43-9.95-20.42-.57-3.88-1.46-7.72-2.65-11.46-9.52-27.35-5.72-45.38-.46-70.32.6-2.65,1.17-5.42,1.73-8.29,4.53-22.12,1.22-40.77-2.61-62.35-.73-4.13-1.47-8.35-2.19-12.69v-.48s2.3-19.05,2.3-19.05c-1.94-5.04-.82-8.6.32-12.04.76-2.03,1.24-4.15,1.45-6.31.68-10.09-2.2-13.77-5.84-18.45-2.91-3.44-5.2-7.37-6.77-11.6-1.35-3.81-.61-7.53.12-11.17.64-3.21,1.25-6.25.26-9.01-1.39-3.91-3.64-5.41-6.45-7.33-1.92-1.22-3.7-2.64-5.31-4.23-6.94-7.17-8.29-12.46-9.86-18.58-1.06-4.68-2.7-9.21-4.89-13.47-1.9-3.64-4.2-6.12-7.04-7.56-4.32-2.19-9.62-1.92-15.74-1.61-4.49.35-9,.32-13.49-.09-6.11-.71-15.16-2.73-22.23-6.31-7.65-3.88-11.47-8.75-11.34-14.46.1-4.52,1.49-7.87,4.14-9.96,5.31-4.22,14.16-2.36,21.27-.88,2.03.42,3.97.83,5.47,1.01,24.16,2.8,45.48-1.67,68.04-6.36,5.1-1.07,10.29-2.14,15.6-3.16,28.62-5.5,41.93-18.33,52.73-50.85,4.75-14.27,6.93-29.19,5.94-40.97-.37-3.28-.91-6.53-1.63-9.76-2.08-10.47-4.68-23.5,1.66-31.39,10.81-13.48,68.63-1.6,81.78,4.18,3.37,1.47,6.83,3.12,11.24,5.36,1.97,1,3.94,2,5.91,2.99,1.97,1,3.94,2,5.93,3,6.83,3.56,13.89,6.67,21.13,9.28,4.04,1.38,7.99,3.04,11.81,4.95ZM608.12,349.65c-1.3-.66-2.56-1.39-3.78-2.2-16.55-10.85-12.99-21.18-5.85-37.03,5.32-11.84,8.12-21.64,11.08-32.03.99-3.5,2-7.05,3.13-10.77,1.42-4.68,4.89-8.45,8.23-12.1,3.17-3.45,6.16-6.71,6.91-10.25.8-3.79-.71-7.6-2.31-11.65-1.4-3.54-2.86-7.23-2.92-11.22-.09-6.46,1.36-11.79,2.76-16.95,2.3-8.46,4.31-15.79-1.05-26.18-4.04-7.89-10.02-13.64-18.82-18.1-3.69-1.82-7.49-3.4-11.39-4.72-7.39-2.65-14.6-5.79-21.57-9.41-1.99-1.01-3.97-2.01-5.94-3.01-1.98-1-3.92-1.99-5.89-2.98-4.35-2.21-7.77-3.85-11.07-5.29-15.64-6.81-69.37-15.7-77.83-5.16-5.36,6.67-2.93,18.86-.99,28.65.74,3.34,1.3,6.73,1.68,10.13,1,12.2-1.21,27.62-6.11,42.3-9.78,29.41-21.5,46.56-55.3,53.06-5.29,1.02-10.45,2.1-15.54,3.16-22.84,4.76-44.42,9.26-69.11,6.42-1.65-.2-3.65-.62-5.77-1.06-6.43-1.35-14.42-3.02-18.5.22-1.86,1.46-2.79,3.9-2.88,7.41-.1,4.32,3.1,8.16,9.5,11.41,6.68,3.38,15.54,5.33,21.1,5.96,4.3.39,8.62.43,12.92.1,6.33-.32,12.3-.63,17.42,1.97,3.49,1.77,6.26,4.71,8.49,9,2.31,4.5,4.04,9.27,5.16,14.21,1.5,5.9,2.7,10.56,9.02,17.09,1.46,1.44,3.07,2.71,4.81,3.8,2.93,1.99,5.97,4.04,7.74,8.98,1.3,3.64.58,7.28-.13,10.8-.65,3.3-1.27,6.41-.24,9.34,1.45,3.89,3.56,7.49,6.25,10.64,3.76,4.82,7.3,9.37,6.53,20.73-.22,2.44-.76,4.84-1.61,7.14-1.1,3.34-1.97,5.99-.23,10.11l.17.41-2.38,19.66c.7,4.24,1.43,8.37,2.15,12.41,3.89,21.92,7.26,40.85,2.59,63.6-.59,2.87-1.17,5.63-1.74,8.31-5.34,25.32-8.87,42.06.34,68.52,1.27,3.91,2.2,7.92,2.8,11.98,1.33,7.59,2.48,14.14,8.53,18.22,5.02,3.4,11.98,4.32,19.39,5.33,7.63,1.03,15.59,2.11,21.73,6,4.54,2.86,7.53,6.53,10.15,9.77,2.63,3.24,4.89,6.02,8.19,7.69,2.63,1.25,5.54,1.8,8.45,1.6,10.89-.43,25.83-11.72,33.23-19.22,5.13-5.21,10.77-9.15,16.25-13.04,5.22-3.66,10.58-7.45,15.39-12.24,4.67-4.89,8.99-10.1,12.92-15.61,4.83-6.41,9.81-13,16.2-18.66,10.05-8.95,18.93-19.62,27.63-29.93,9.75-11.64,19.85-23.64,31.88-33.83,1.96-1.65,3.9-3.27,5.74-4.89,10.42-8.91,20.28-17.28,32.6-24.83,8.87-5.41,21.68-13.73,30.35-23.48,13.89-15.63,16.64-36.5,19.32-56.73.86-6.52,1.75-13.26,3.02-19.62.31-1.58.65-3.25,1.01-4.99,4.04-19.7,10.16-49.48-7.65-58.51-4.23-1.97-8.85-2.95-13.52-2.86-14.53-.14-29.33,9.12-43.68,18.04-19.25,12.03-39.11,24.47-58.99,14.4Z"/>
      </g>
    </mask>
    <mask id="mask-5" x="366.61" y="159.61" width="354.01" height="485.25" maskUnits="userSpaceOnUse">
      <g id="path-6-inside-6_441_31" data-name="path-6-inside-6 441 31">
        <path class="cls-3" d="M543.83,168.35c3.37,1.74,6.51,3.89,9.36,6.4,4.92,4.29,10.15,8.07,15.21,11.72,18.31,13.23,35.61,25.72,26.35,56.33-2.1,6.98-6.09,13.06-9.94,18.93-4.56,6.94-8.86,13.48-10.18,21.32-.86,5.7-1.15,11.48-.88,17.24.17,7.65.31,14.9-3.05,24.2-8.61,23.79.35,31.63,7.87,35.44,8.71,4.41,21.5,5.81,33.86,6.85,12.08,1.03,29.93.78,40.47-3.35,7.37-2.88,12.75-8.65,18.45-14.75,5.46-5.83,11.09-11.86,18.67-15.25,7.18-3.24,13.01-3.75,17.33-1.56,15.55,7.88,5.58,47.9-.84,61.78-4.04,8.76-9.35,16.79-14.49,24.55-2.77,4.21-5.62,8.52-8.26,12.93-7.93,13.23-18.61,18.74-29.91,24.61-5.09,2.53-10.04,5.33-14.84,8.38-15.42,10.16-27.08,16-46.31,23.29-15.62,5.93-24.28,17.34-25.72,33.95-.44,5.38-.14,10.8.89,16.1,1.25,7.68,2.24,13.74-5.41,25.6-2.07,3.19-4.09,6.56-6.17,9.96-6.99,11.58-14.19,23.57-24.43,31.52-3.12,2.21-6.5,4.03-10.07,5.41-4.06,1.77-7.9,3.44-10.89,6.31-2.14,2.01-3.53,5.14-4.9,8.17-1.51,3.31-3.07,6.74-5.64,9.07-11.72,10.56-19.8,6.18-30.4-.11-2.17-1.29-4.48-2.66-6.97-3.97-3.42-1.81-6.76-3.43-10.04-5-2.32-1.12-4.6-2.22-6.81-3.34-14.81-7.51-28.24-16.44-29.99-43.07-1.2-18.46.47-37.96,2.05-56.74.93-10.99,1.89-22.35,2.27-33.29l.09-2.58c.47-13.67.83-24.47-.47-38.28-.47-4.91.39-10.48,1.21-15.86,1.16-7.62,2.35-15.5-.24-21.15l-.19-.39.85-13.15c-.33-2.92-.91-5.81-1.73-8.64-1.19-4.68-2.42-9.52-1.94-13.91.42-4.1,1.79-8.06,3.99-11.55,2.02-3.47,2.78-4.77-2.66-11.15-2.18-2.55-4.66-3.57-6.89-4.62-.65-.33-1.3-.66-1.96-.99-3.06-1.4-5.63-3.68-7.37-6.57-1.75-2.95-1.91-6.33-2.08-9.59-.17-3.26-.33-6.45-2.08-8.92-2.12-3.05-6.46-5.42-11.05-7.91-8.69-4.72-18.54-10.08-15.89-22.22,3.38-15.53,26.01-18.22,45.97-20.59,11.15-1.33,21.69-2.58,27.3-5.82,30.06-17.43,37.22-33.26,46.39-65.23,4.32-15.06,13.36-26.55,24.83-31.54,8.79-3.91,18.25-3.51,27.28,1.06ZM577,362.83c-13.53-6.86-16.64-19.78-9.5-39.52,3.15-8.72,3.01-15.64,2.86-22.99-.29-5.97.02-11.96.92-17.87,1.43-8.5,6.13-15.66,10.68-22.6,3.73-5.67,7.58-11.54,9.54-18.06,8.57-28.32-6.3-39.05-25.11-52.64-5.11-3.71-10.41-7.52-15.44-11.9-2.64-2.32-5.56-4.32-8.68-5.94-8.11-4.11-16.56-4.47-24.43-1.05-10.38,4.52-18.96,15.52-22.94,29.4-9.21,32.14-16.94,49.26-47.93,67.21-6.2,3.6-17.08,4.89-28.59,6.26-18.84,2.23-40.2,4.78-43.09,17.97-2.11,9.69,5.82,14,14.19,18.55,4.95,2.7,9.62,5.24,12.2,8.95,2.28,3.29,2.47,7.05,2.66,10.69.16,2.99.32,5.78,1.62,8.07,1.94,3.3,4.74,4.7,7.9,6.18,2.56,1.22,5.39,2.42,8.01,5.49,6.65,7.8,5.53,10.67,3.01,15.01-1.96,3.09-3.18,6.6-3.55,10.24-.3,3.8.77,8.33,1.89,12.78.89,3.1,1.5,6.27,1.83,9.47l-.79,12.52c2.79,6.5,1.53,14.72.34,22.64-.83,5.42-1.6,10.54-1.18,15.04,1.32,14.02.95,24.92.48,38.71l-.09,2.59c-.38,11.04-1.34,22.43-2.28,33.46-1.61,18.69-3.22,38.04-2.04,56.26,1.63,24.9,13.71,32.98,28.15,40.3,2.19,1.11,4.42,2.24,6.76,3.31,3.31,1.59,6.7,3.23,10.14,5.05,2.56,1.35,4.92,2.75,7.13,4.06,2.21,1.31,4.27,2.53,6.23,3.53,6.84,3.47,12.34,4.09,20.22-3.03,2.06-1.85,3.41-4.82,4.84-7.97,1.51-3.3,3.06-6.72,5.62-9.19,3.43-3.29,7.73-5.16,11.88-6.96,3.31-1.28,6.46-2.95,9.36-5,9.76-7.54,16.8-19.27,23.6-30.59,2.06-3.45,4.1-6.85,6.22-10.05,6.97-10.78,6.16-15.74,4.93-23.25-1.09-5.57-1.4-11.27-.92-16.93,1.57-18.01,10.92-30.41,27.88-36.79,18.98-7.23,30.48-12.98,45.63-22.93,4.89-3.12,9.95-5.97,15.14-8.56,11.34-5.87,21.14-10.95,28.57-23.36,2.68-4.47,5.59-8.82,8.35-13.06,5.07-7.65,10.3-15.58,14.24-24.11,6.35-13.8,15.06-50.95,2.3-57.42-3.38-1.71-8.24-1.16-14.46,1.66-6.97,3.13-12.38,8.91-17.59,14.51-5.71,6.09-11.62,12.42-19.69,15.58-11.07,4.32-28.94,4.68-41.98,3.58-12.61-1.12-25.77-2.57-35.05-7.27Z"/>
      </g>
    </mask>
    <mask id="mask-6" x="414.96" y="189.54" width="289.44" height="429.37" maskUnits="userSpaceOnUse">
      <g id="path-7-inside-7_441_31" data-name="path-7-inside-7 441 31">
        <path class="cls-3" d="M539.71,196.49c4.66,2.36,9.58,6.96,14.63,13.66,17.02,22.57,10.57,36.59,2.4,54.34-3.16,6.88-6.43,14.01-8.8,22.5-2.68,9.73-3.07,16.98-3.46,24.68-.2,4.23-.42,8.61-1.02,13.66-.69,5.67-2.98,10.31-4.95,14.42-3.36,6.88-6.01,12.31-1.4,20.5,5.12,8.99,12.84,16.23,22.13,20.78,35.4,17.94,90.89,3.6,113.25-20.23,10.6-11.31,17.72-15.48,22.37-13.12,2.87,1.45,4.35,5.16,4.54,11.28.27,9.8-8.17,25.2-13.75,35.4l-1.57,2.88c-5.71,10.59-17.54,25.51-27.38,32.06-6.06,4.03-13.4,6.16-20.5,8.23-5.36,1.43-10.59,3.3-15.64,5.58-5.69,2.56-11.53,4.77-17.48,6.62-8.63,2.89-17.57,5.87-23.9,10.23-5.83,3.99-12.16,9.77-18.3,15.34-4.22,3.89-8.64,7.87-12.74,11.16-10.2,8.16-16.15,20.28-21.37,31.99-.34.67-.79,1.72-1.38,2.95-2.05,4.3-5.87,12.29-6.06,15.07-.31,4.52,1.37,6.67,3.49,9.4,1.91,2.19,3.34,4.76,4.2,7.53,2.85,10.24-.06,22.28-8.09,33.96-10.06,14.53-26.06,25.11-39.81,26.34-7.46.76-14.99-.62-21.7-3.98-14.07-7.13-24.73-23.77-28.53-44.51-3.17-17.27-.51-36.32,2.06-54.77,1.32-9.44,2.57-18.36,3.06-27,.34-5.72.26-12.33.19-19.35-.19-18.98-.41-40.49,7.16-54.7l6.42-16.18c-1.94-3.31-1.31-9.05-.6-15.62.58-5.58,1.24-11.3.11-15.03-.59-1.8-1.4-3.53-2.42-5.14-1.63-2.49-2.7-5.3-3.13-8.25-.43-3.26.97-6.89,2.33-10.39,1.21-3.17,2.49-6.46,1.87-8.44-1.71-5.49-6.92-7.6-11.73-9.83-1.21-.54-2.41-1.1-3.57-1.69-4.59-2.33-9.42-5.63-10.43-12.45-.74-4.87.2-9.11,2.77-12.46,5.86-7.7,18.77-9.29,28.18-10.43l.35-.04c2.79-.35,5.53-.57,8.22-.71,10.3-.73,19.18-1.35,26.82-10.32,8.74-10.24,15.37-30.75,17.82-39.09,6.33-21.57,13.58-33.87,22.16-37.58,4.15-1.87,8.6-1.61,13.19.72ZM557.74,384.05c-9.89-4.85-18.09-12.55-23.54-22.12-5.5-9.73-2.2-16.48,1.28-23.63,1.98-4.05,4.03-8.24,4.65-13.37.59-4.93.8-9.25,1.01-13.43.39-7.89.77-15.34,3.57-25.41,2.37-7.91,5.38-15.62,9-23.04,8-17.39,13.78-29.95-2.04-50.92-8.93-11.85-16.87-16.42-23.86-13.37-7.5,3.24-14.34,15.2-20.28,35.44-2.5,8.55-9.33,29.59-18.48,40.33-8.54,10.03-18.54,10.74-29.12,11.48-2.61.18-5.28.37-8.01.71l-.39.1c-8.86,1.13-20.94,2.59-25.98,9.15-2.02,2.66-2.71,5.9-2.12,9.95.74,5.01,3.99,7.64,8.62,9.98,1.13.57,2.27,1.15,3.46,1.64,1.19.49,2.39,1.11,3.56,1.7,3.99,2.02,8.29,4.81,9.96,10.18.96,3.09-.45,6.76-1.95,10.63-1.2,3.12-2.45,6.35-2.18,8.73.37,2.5,1.3,4.89,2.71,6.99,1.16,1.83,2.07,3.81,2.73,5.88,1.31,4.36.65,10.44,0,16.35-.59,5.6-1.3,11.94.42,13.93l.66.78-7.21,18.13c-7.24,13.63-7,34.65-6.83,53.27.07,7.07.14,13.74-.19,19.57-.5,8.74-1.76,17.75-3.08,27.27-2.54,18.17-5.15,36.96-2.08,53.69,3.62,19.73,13.62,35.47,26.76,42.13,6.15,3.07,13.05,4.33,19.88,3.63,12.82-1.14,27.83-11.15,37.33-24.89,7.48-10.81,10.2-21.89,7.63-31.16-.76-2.35-2-4.51-3.65-6.34-2.25-2.89-4.59-5.89-4.19-11.67.21-3.16,3.27-9.78,6.38-16.29.6-1.19,1.05-2.2,1.34-2.87,5.4-12.09,11.56-24.62,22.34-33.25,4.01-3.21,8.18-7,12.58-11.02,6.23-5.65,12.64-11.5,18.65-15.62,6.75-4.62,15.89-7.68,24.73-10.64,5.82-1.8,11.53-3.96,17.09-6.47,5.23-2.34,10.63-4.24,16.17-5.69,7.17-2.09,13.94-4.06,19.57-7.8,9.29-6.18,20.89-20.87,26.3-30.86l1.58-2.9c5.08-9.28,13.59-24.82,13.33-33.68-.15-4.57-1.08-7.6-2.69-8.42-1.61-.82-6.36-.41-18.4,12.42-22.95,24.56-80.39,39.39-117.02,20.83Z"/>
      </g>
    </mask>
  </defs>
  <g class="cls-1">
    <path class="cls-2" d="M721.24,77.96c2.18,1.11,4.36,2.26,6.5,3.5,1.29.74,2.98,1.65,4.94,2.69,9.72,5.21,24.33,13.02,27.36,20.16,2.51,5.91.73,15.55-.97,24.86-1.04,5.67-2.03,11.03-1.97,15.1.04,2.61-.04,5.22-.11,7.81-.26,10.38-.52,20.18,6.32,27.92,2.31,2.33,4.94,4.33,7.81,5.92,3.25,2.04,6.6,4.15,9.17,7.28,1.4,1.96,2.39,4.19,2.88,6.55.71,2.61,1.49,5.25,3.5,7.5,2.96,3.21,6.37,5.97,10.13,8.19,5.45,3.5,10.59,6.8,13.68,17.33,2.84,9.64,2.49,20.59,2.17,30.24-.09,2.4-.16,4.74-.18,7-.02,2.26-.06,4.55-.13,6.68-.32,11.35-.61,21.15,4.51,31.98,1.42,2.96,2.81,5.76,4.17,8.44,4.12,8.1,8.01,15.74,10.03,26.26,5.85,30.57-6.48,71.56-10.4,83.39-1.94,5.84-4.48,11.63-6.94,17.23-3.12,7.1-6.33,14.44-8.31,21.87-1.1,4.13-1.84,8.06-2.52,11.84-1.62,8.84-3.15,17.19-9.15,26.04-9.74,14.37-24.92,16.64-39.58,18.82-10.24,1.55-20.82,3.11-29.92,8.66-23.78,14.58-40.89,31.79-57.78,49.6l-1.12,1.19c-16.98,17.99-36.27,38.33-43.14,63.29-2.98,10.9,2.02,21.81,6.86,32.35,5.44,11.86,11.04,24.09,5.4,36.44,3.87,3.57,9.31,7.08,14.58,10.48,9.88,6.38,18.4,11.89,17.36,17.86-.76,4.41-6.4,7.63-18.29,10.42-13.48,3.17-27.08,9.11-40.17,14.89-9.95,4.37-20.21,8.86-30.65,12.29-5.1,1.67-10.6,3.61-16.34,5.65-19.01,6.76-40.56,14.41-58.04,15.25-26.36,1.36-52.79-.16-78.83-4.51-7.73-1.43-15.2-4-22.17-7.63-4.28-2.16-8.4-4.65-12.3-7.44-8.19-5.85-11.07-11.41-14.35-17.81-1.69-3.43-3.6-6.75-5.73-9.93l-.64-.94.66-.96c2.5-3.41,5.29-6.6,8.32-9.55,3.5-3.34,6.64-7.05,9.34-11.07l8.07-12.3c.02-8.36-3.16-19.4-10.39-24.36-5.88-4.1-11.57-3.26-17.65-2.4-4.56.61-9.28,1.24-14.2-.13-1.58-.45-3.11-1.05-4.58-1.78-15.19-7.7-11.37-26.86-7.99-43.76,1.44-7.28,2.82-14.14,2.67-19.65-.05-5.21.17-10.42.65-15.61.53-6.82,1.02-13.26.28-19.3-1.15-9.57-8.05-19.68-14.13-28.63-1.89-2.79-3.71-5.45-5.26-7.97-2.1-3.4-4.65-6.85-7.1-10.23-4.95-6.73-10.07-13.7-12.48-21.15-.94-3.36-1.34-6.85-1.18-10.34-.02-3.45,0-6.67-1.2-10.01-1.05-2.96-3.23-5.12-5.53-7.41-2.3-2.29-4.46-4.51-5.96-7.59-5.14-10.96-6.56-30.13-4.64-40.48.85-3.75,2.04-7.41,3.57-10.94,3.08-7.78,6.25-15.82,1.96-23.23-2.41-4.11-7.38-7.11-12.72-10.36-5.86-3.57-12.52-7.61-16.72-13.89l-2.12-3.19c-8.06-12.17-12.07-18.06-26.32-23.72-24.02-9.67-46.88-22.01-68.15-36.78-20.75-14.67-32.89-31.86-41.91-59.32-5.15-15.68-8.31-19.71-19.55-30.13-7.85-7.23-12.24-14.35-16.89-21.88-1.5-2.43-3.11-4.95-4.78-7.58-2.28-3.48-4.88-6.74-7.35-9.87-5.56-6.98-11.32-14.18-13.52-23.7-.87-4.03-1.38-8.12-1.5-12.24-.45-8.34-.69-12.8-11.8-17.81-4.18-1.79-8.5-3.23-12.92-4.3-4.33-1.01-8.54-2.46-12.57-4.35-5.01-2.56-9.26-6.39-12.35-11.1-5.18-7.51-6.87-13.39-5.49-18.56,1.34-4.99,5.55-9.03,13.23-12.68,21.68-10.36,48.98-9.82,73.06-9.35,3.14.06,6.2.12,9.16.15,4.81.04,9.76-.06,15.01-.18,19.95-.44,42.54-.91,60.7,8.3.99.5,1.99,1.01,2.95,1.6,7.45,4.34,14.7,9.92,21.71,15.32,8.75,6.68,17.78,13.68,27.61,18.66,6.16,3.18,12.78,5.4,19.62,6.57,4.37.74,7.84,1.11,10.9,1.43,4.94.53,8.51.94,11.73,2.58,4.32,2.19,7.74,6.35,13.54,16.46,5.79,10.11,11.41,14.33,18.19,17.77,3.94,2,8.49,3.76,13.75,5.85l1.51.59c12.1,4.71,21.82,6.3,34.12,8.31l2.38.4c3.61.73,7.18,1.66,10.69,2.79,9.44,2.78,22.35,6.6,28.17,3.17,6.4-3.76,17.34-25.96,19.24-33.99,2.5-10.64,1.72-22.25-2.3-34.49-7.05-21.55-19.89-32.38-34.75-44.99-4.72-3.99-9.56-8.1-14.5-12.77-9.1-8.63-26.09-24.73-20.42-40.09,5.68-15.37,30.6-18.51,43.98-20.3l.9-.12c19.37-2.54,38.72.46,57.43,3.38,12.56,1.96,25.57,3.97,38.42,4.3,13.41.31,26.69,1.85,39.54,3.31,16.64,1.91,33.85,3.88,50.94,3.11,21.27-.94,38.32,6.12,52.19,13.15,6.99,3.54,13.78,7.45,20.97,11.58l5.65,3.25c12.41,7.07,25.57,11.93,38.32,16.62,10.64,3.92,21.62,7.97,32.11,13.28ZM403.43,785.79c6.66,3.48,13.81,5.94,21.2,7.3,25.81,4.32,52.01,5.81,78.14,4.46,16.99-.83,38.28-8.39,57.06-15.08,5.74-2.04,11.27-4,16.36-5.69,10.25-3.35,20.46-7.84,30.35-12.19,13.26-5.82,26.97-11.84,40.74-15.08,13.09-3.08,15.48-6.17,15.77-7.73.65-3.79-8.14-9.46-15.89-14.47-5.81-3.76-11.85-7.65-15.98-11.73l-.87-.87.57-1.12c5.78-11.26.58-22.6-4.92-34.61-5.09-11.08-10.34-22.55-7.04-34.62,7.04-25.8,26.64-46.47,43.94-64.72l1.11-1.18c17.04-17.98,34.35-35.39,58.48-50.12,9.73-5.9,20.6-7.53,31.17-9.12,14.59-2.19,28.39-4.24,37.31-17.39,5.61-8.27,7.01-15.92,8.63-24.77.7-3.87,1.44-7.85,2.57-12.11,2.06-7.67,5.32-15.13,8.48-22.35,2.42-5.51,4.94-11.26,6.82-16.94,10.3-31.05,14.16-61.6,10.29-81.7-1.93-10.06-5.55-17.16-9.73-25.38-1.38-2.71-2.82-5.52-4.22-8.53-5.39-11.52-5.15-21.71-4.82-33.49.05-2.17.12-4.38.14-6.67.03-2.29.11-4.64.21-7.06.28-9.42.65-20.06-2.08-29.14-2.77-9.35-6.98-12.05-12.3-15.48-4.01-2.38-7.66-5.34-10.82-8.77-2.52-2.83-3.42-6.01-4.2-8.87-.39-1.91-1.15-3.72-2.24-5.33-2.23-2.7-5.21-4.59-8.37-6.57-3-1.89-6.1-3.83-8.51-6.56-7.71-8.72-7.44-19.16-7.15-30.21.06-2.52.14-5.08.1-7.66-.03-4.37.96-9.9,2.04-15.74,1.54-8.43,3.3-17.96,1.2-22.98-2.55-6.05-17.16-13.86-25.86-18.52-1.99-1.06-3.72-1.99-5.03-2.74-12.26-7.02-25.37-11.86-38.09-16.54-12.87-4.75-26.2-9.64-38.82-16.86l-5.67-3.26c-7.15-4.11-13.91-8.01-20.81-11.5-13.49-6.83-30.04-13.69-50.53-12.78-17.35.77-34.69-1.23-51.46-3.14-12.74-1.45-25.99-2.97-39.26-3.29-13.07-.31-26.18-2.36-38.85-4.34-18.47-2.89-37.57-5.87-56.47-3.38l-.91.12c-12.71,1.68-36.38,4.79-41.3,18.12-4.92,13.32,11.03,28.45,19.53,36.57,4.86,4.61,9.69,8.7,14.35,12.65,15.26,12.93,28.42,24.1,35.77,46.5,4.21,12.83,5.03,25.02,2.37,36.3-1.78,7.58-12.98,31.49-20.79,36.12-7.07,4.17-20.24.28-30.82-2.85-3.38-1.08-6.81-1.98-10.28-2.7l-2.39-.39c-12.44-2.04-22.35-3.69-34.77-8.51l-1.51-.59c-5.36-2.08-9.98-3.87-14.07-5.94-8.65-4.38-14.31-9.92-19.54-19.07-9.33-16.3-11.57-16.17-22.73-17.35-2.96-.32-6.63-.71-11.11-1.46-7.16-1.26-14.09-3.62-20.54-6.98-10.15-5.14-19.31-12.19-28.16-19-7.27-5.6-14.09-10.85-21.35-15.08-17.8-10.37-41.3-9.86-61.91-9.41-5.28.11-10.23.24-15.13.2-2.98-.02-6.04-.09-9.17-.16-23.71-.46-50.62-.94-71.57,9.02-6.73,3.22-10.36,6.55-11.44,10.53-1.07,3.97.54,9.26,5.02,15.81,2.77,4.26,6.61,7.71,11.14,10.02,3.82,1.77,7.82,3.15,11.93,4.1,4.6,1.12,9.09,2.63,13.44,4.51,12.97,5.91,13.3,12.36,13.75,20.69.11,3.92.59,7.82,1.41,11.66,2.02,8.8,7.29,15.4,12.87,22.39,2.56,3.21,5.22,6.53,7.58,10.14,1.75,2.66,3.33,5.2,4.85,7.66,4.71,7.66,8.79,14.26,16.3,21.18,11.62,10.7,15.15,15.18,20.51,31.51,8.76,26.72,20.55,43.42,40.64,57.67,21.04,14.63,43.66,26.84,67.43,36.42,15.23,6.05,19.76,12.72,27.89,24.99l2.11,3.18c3.78,5.66,9.87,9.35,15.68,12.88,5.67,3.44,11.02,6.71,13.84,11.51,5.11,8.82,1.46,18.03-1.74,26.15-1.45,3.3-2.6,6.74-3.42,10.25-1.82,9.83-.33,28.36,4.39,38.44,1.21,2.59,3.18,4.56,5.29,6.63,2.46,2.45,5.02,4.99,6.32,8.66,1.4,3.89,1.38,7.56,1.39,11.13-.15,3.14.19,6.28,1.02,9.31,2.25,6.95,7.2,13.69,12,20.21,2.5,3.41,5.09,6.94,7.27,10.43,1.52,2.47,3.31,5.1,5.17,7.83,6.3,9.27,13.42,19.77,14.69,30.12.78,6.37.25,13.28-.27,19.96-.48,5.07-.69,10.16-.64,15.25.17,5.89-1.24,12.94-2.73,20.4-3.3,16.5-6.71,33.57,6.22,40.12,1.28.64,2.61,1.16,3.99,1.55,4.22,1.21,8.38.62,12.78,0,6.39-.91,13.08-1.84,20.02,2.96,8.42,5.82,12,18.1,11.81,27.68v.49s-8.58,13.09-8.58,13.09c-2.82,4.22-6.09,8.12-9.75,11.64-2.62,2.57-5.06,5.31-7.31,8.2,1.93,3,3.69,6.11,5.28,9.31,3.09,6.06,5.79,11.25,13.32,16.62,3.79,2.69,7.77,5.1,11.92,7.2Z"/>
  </g>
  <g class="cls-8">
    <path class="cls-2" d="M668.23,92.4c6.12,3.1,10.26,7.45,14.68,11.94s8.75,9.07,15.49,13c1.63.95,3.12,1.78,4.45,2.55,12.65,7.16,13.62,8.14,14.46,26.68.18,3.46.27,6.8.37,9.99.39,12.22.73,22.77,3.77,35.49.43,1.81.85,3.71,1.27,5.67,2.51,11.55,5.36,24.64,14.85,31.48,3.66,2.65,8.36,4.23,12.68,5.65,3.11.9,6.13,2.06,9.05,3.46,5,2.53,9.12,6.51,11.82,11.42,4.74,8.14,4.66,15.61,4.58,23.5-.18,4.64.08,9.28.77,13.87,1.99,11.35,8.27,19.77,14.92,28.68,2.3,3.08,4.68,6.27,6.9,9.62,16.52,24.9,7.62,46.73-1.81,69.85-1.47,3.58-2.95,7.24-4.43,10.96-2.31,6.02-5.3,12.2-8.17,18.18-4.27,8.82-8.67,17.95-11.09,26.88-.92,3.59-1.61,7.24-2.08,10.92-1.34,9.05-2.49,16.86-12.74,25.84-7.96,6.97-18.99,12.97-28.73,18.26-2.27,1.23-4.48,2.44-6.58,3.61-15.51,8.69-20.98,13.08-32.58,26.1-4.64,5.22-10.49,9.1-16.15,12.85-6.4,4.25-13.01,8.64-17.67,14.92-8.9,11.9-17.78,25.56-23.7,34.8-2.52,3.93-5.32,7.95-8.04,11.82-11.57,16.55-23.55,33.66-20.3,53.68.32,1.97.7,3.72,1.04,5.42,1.02,4.84,1.89,9.01.87,14.48-.54,2.63-1.56,5.14-2.99,7.4-1.53,2.68-2.63,4.63-1.61,8.28,1.44,5.1,7.6,9.63,13.57,14.01,4.46,3.27,8.67,6.37,11.03,9.76,4.89,7.04,6.45,12.83,4.77,17.72-2.85,8.26-14.56,11.86-25.86,15.33-4.99,1.4-9.88,3.12-14.65,5.15-1.75.82-4.54,2.32-8.09,4.2-22.45,12.01-47.26,24.34-57.52,19.15-.87-.43-1.65-1.02-2.31-1.74l-27.08,6.44-.38-.08c-9.42-2.13-18.97-2.88-28.26-3.5-13.51-.97-27.48-1.98-41.56-7.42-2.86-1.11-5.51-2.27-7.86-3.47-26.95-13.66-19.49-33.47-10.81-56.43.99-2.64,1.99-4.97,2.88-7.07,4.31-10.09,5.9-13.86-5.12-22.52-1.48-1.15-3.07-2.15-4.74-3-4.08-2.07-8.36-3.11-12.86-4.27-5.56-1.39-11.35-2.84-16.66-6.31-13.79-8.98-13.56-31.16-13.36-50.73.06-6.77.13-13.17-.37-18.63-2.18-23.57-12.12-44.41-21.75-64.52-9.74-20.35-19.8-41.39-22.09-65.56-.64-6.82.66-13.7,1.94-20.36,1.07-5.62,2.18-11.43,2.09-17.17-.06-3.52.3-7.81.65-12.36.72-8.69,1.54-18.54-.54-24.31-1.94-5.39-6.92-8.79-12.19-12.39-5.27-3.6-10.95-7.49-13.88-13.77-1.18-2.68-1.46-5.67-.81-8.52.49-3.35.82-5.56-4.76-8.96-.3-.15-.58-.29-.89-.45-3-1.52-5.09-.86-7.74-.02-2.64,1.06-5.51,1.37-8.31.89-2.23-.46-4.38-1.21-6.41-2.24-4.27-2.16-7.57-5.3-10.75-8.32-3.18-3.03-6.19-5.88-10.09-7.86-1.67-.85-3.44-1.49-5.28-1.91-2.94-.67-5.5-.23-8.27.2-3.68.62-7.51,1.23-12.35-.64-4.21-1.64-13.92-9.67-16.91-12.44-6.8-6.28-11.89-12.99-17.27-20.1-3.3-4.35-6.74-8.86-10.6-13.34-6.62-7.63-9.11-14.86-11.75-22.52-1.24-3.82-2.68-7.57-4.32-11.24-7.12-15.32-18.83-28.57-30.16-41.4-7.86-8.88-15.25-17.25-21.24-26.26-4.15-6.22-5.98-12.75-7.76-19.05-1.63-5.78-3.17-11.22-6.38-16.23-2.07-2.97-4.45-5.72-7.08-8.2-7-7.1-14.95-15.14-6.15-26.78,14.13-18.73,71.4-4.03,82.74-.89,5.51,1.52,11.47,3.04,17.63,4.61,19.77,5.02,42.17,10.72,58.93,19.14,8.43,4.27,11.14,9.68,13.78,14.92,2.08,4.14,4.05,8.06,8.76,11.54,5.04,3.75,14.16,6.51,22.81,8.98,6.87,1.96,13.9,3.97,19.51,6.81,25.02,12.68,49.08,20.01,75.88,23.13,24.66,2.88,45.54-22.27,51.49-48.25,2.49-10.89,1.04-32.5-1.05-42.58-1.05-4.29-2.43-8.49-4.14-12.56-3.19-8.3-6.81-17.7-5.61-27.24.29-3.02,1.24-5.93,2.78-8.55,1.54-2.61,3.62-4.86,6.12-6.58,16.97-11.83,53.26-3.46,70.71.57l.43.09c5.1,1.18,9.44,2.54,13.3,3.7,9.39,2.88,16.81,5.15,29.26,3.59,21.31-2.61,41.44-5.09,62.82,4.82,16.67,7.72,28.62,9.36,45.13,11.64,2.82.39,5.78.79,8.87,1.25,4.47.58,8.82,1.9,12.86,3.91ZM739.77,234.47c-1.45-.73-2.84-1.57-4.16-2.51-10.54-7.59-13.53-21.36-16.17-33.49-.42-1.93-.84-3.79-1.25-5.6-3.13-13.06-3.47-23.76-3.87-36.16-.11-3.18-.21-6.48-.37-9.95-.78-17.15-.99-17.26-12.75-23.91-1.35-.77-2.85-1.61-4.48-2.57-7.16-4.16-11.77-8.94-16.23-13.56-4.18-4.36-8.15-8.46-13.76-11.31-3.7-1.82-7.67-3.03-11.76-3.57-3.13-.46-6.04-.82-8.84-1.23-16.18-2.22-28.97-3.96-46.1-11.91-20.51-9.51-39.28-7.2-61.01-4.53-13.16,1.6-20.85-.76-30.66-3.78-3.98-1.22-8.09-2.48-13.08-3.63l-.42-.1c-16.97-3.92-52.29-12.07-68.03-1.08-2.12,1.45-3.88,3.35-5.18,5.56-1.3,2.21-2.08,4.69-2.31,7.24-1.05,8.72,2.22,17.3,5.42,25.61,1.77,4.24,3.2,8.62,4.29,13.08,2.2,10.63,3.66,32.51,1.04,44.01-6.23,27.47-28.62,53.92-55.13,50.83-26.79-3.04-52.8-10.95-76.75-23.33-5.6-2.84-12.52-4.82-19.2-6.73-8.94-2.55-18.36-5.43-23.88-9.51-5.37-3.97-7.61-8.43-9.78-12.74-2.5-4.97-4.86-9.67-12.18-13.37-16.56-8.31-38.76-13.96-58.35-18.94-6.21-1.58-12.19-3.1-17.71-4.63-24.4-6.75-68.52-14.43-79.16-.33-7.06,9.34-1.07,15.41,5.85,22.42,2.82,2.66,5.35,5.6,7.57,8.78,3.45,5.41,5.13,11.36,6.75,17.11,1.7,6.05,3.47,12.31,7.33,18.1,5.86,8.82,13.19,17.12,20.95,25.9,11.49,13.01,23.37,26.45,30.68,42.22,1.69,3.77,3.18,7.62,4.46,11.55,2.52,7.34,4.9,14.28,11.1,21.42,3.98,4.58,7.42,9.12,10.74,13.51,5.3,6.99,10.3,13.58,16.88,19.65,3.37,3.12,12.28,10.4,15.86,11.78,3.97,1.55,7.19,1.02,10.58.47,3.14-.71,6.39-.77,9.55-.17,2.1.47,4.13,1.21,6.05,2.19,4.34,2.2,7.67,5.36,10.89,8.42,3.21,3.05,6.13,5.81,9.96,7.76,1.76.9,3.64,1.56,5.58,1.95,2.53.52,4.54-.1,6.64-.78,2.83-.9,6.04-1.92,10.26.22.35.18.71.36,1.07.6,7.47,4.55,6.84,8.66,6.33,12.31-.32,2.14-.63,4.17.53,6.62,2.55,5.46,7.73,8.99,12.79,12.45,5.48,3.74,11.14,7.62,13.45,14.02,2.31,6.39,1.48,16.7.72,25.73-.36,4.46-.69,8.64-.66,12.02.1,6.08-1.05,12.07-2.15,17.86-1.28,6.71-2.48,13.04-1.88,19.39,2.22,23.59,12.16,44.36,21.78,64.43,9.75,20.38,19.82,41.5,22.06,65.65.51,5.63.45,12.11.38,18.97-.18,18.71-.4,39.91,11.84,47.89,4.88,3.16,10.09,4.47,15.65,5.86,4.68,1,9.22,2.52,13.56,4.54,1.87.94,3.64,2.06,5.29,3.35,13.07,10.24,10.6,16,6.13,26.46-.88,2.06-1.85,4.34-2.83,6.93-9.64,25.52-13.97,40.53,9.18,52.26,2.25,1.14,4.8,2.26,7.55,3.33,13.62,5.26,27.33,6.26,40.6,7.22,9.26.67,18.83,1.36,28.38,3.49l28.5-6.78.63.97c.46.66,1.09,1.19,1.82,1.53,9.57,4.85,39.84-11.26,54.41-19.05,3.59-1.91,6.42-3.42,8.25-4.28,4.9-2.12,9.94-3.92,15.08-5.38,10.51-3.22,21.38-6.57,23.68-13.22,1.33-3.82-.13-8.61-4.34-14.7-2.03-2.93-6.02-5.86-10.26-8.97-6.41-4.72-13.1-9.61-14.8-15.8-1.4-5,.29-7.97,1.92-10.84,1.24-1.95,2.13-4.1,2.61-6.36.89-4.82.11-8.51-.86-13.19-.36-1.72-.74-3.55-1.07-5.58-3.46-21.36,8.91-39.04,20.87-56.13,2.69-3.85,5.48-7.83,7.96-11.69,5.94-9.28,14.87-23.01,23.83-34.99,5.03-6.73,11.9-11.28,18.52-15.7,5.75-3.83,11.15-7.4,15.5-12.29,11.9-13.38,17.53-17.88,33.45-26.79,2.1-1.18,4.32-2.39,6.61-3.63,9.6-5.25,20.44-11.13,28.14-17.85,9.32-8.16,10.34-15.06,11.63-23.8.47-3.81,1.19-7.59,2.14-11.32,2.45-9.26,6.96-18.5,11.29-27.46,2.86-5.92,5.81-12.04,8.06-17.92,1.45-3.76,2.96-7.48,4.41-11.05,9.51-23.21,17.65-43.29,2.12-66.72-2.17-3.27-4.52-6.41-6.79-9.46-6.9-9.24-13.42-17.96-15.54-30.1-.72-4.79-1-9.64-.81-14.49.08-7.43.15-14.44-4.12-21.78-2.38-4.35-6.02-7.88-10.44-10.12-2.76-1.31-5.63-2.39-8.57-3.22-3.24-.94-6.4-2.14-9.44-3.6Z"/>
  </g>
  <g class="cls-5">
    <path class="cls-2" d="M655.91,106.46c3.15,1.59,6.36,3.4,9.6,5.43,17.18,10.69,18.43,12.07,26.85,29.51,7.32,15.15,8.55,20.58,10.66,37.19.49,3.88.85,8.58,1.26,14.02,1.54,20.12,3.65,47.67,14.84,58.79,2.23,2.25,5.73,3.19,9.43,4.02,3.7.83,7.87,2,10.65,4.54,2.05,1.88,2.98,4.74,3.87,7.51.73,2.24,1.41,4.35,2.59,5.74,2.35,2.76,4.52,5.18,6.55,7.44,6.68,7.43,11.96,13.3,17.16,24.71,5.89,12.92,8.39,22.52,11.18,36.8,3.45,17.78,3.63,24.07-2.84,40.44-4.39,11.14-7.77,23.38-11.05,35.23l-1.44,5.18c-2.8,9.95-7.24,16.07-11.97,22.52-2.73,3.58-5.23,7.32-7.49,11.2-2.16,3.92-4.08,7.97-5.75,12.12-3.01,7.17-5.2,12.34-14.25,19.74-5.24,4.29-10.8,8.58-16.18,12.74-5.87,4.53-11.94,9.23-17.5,13.82-21.08,17.73-40.83,36.98-59.09,57.6-12.61,14.37-19.47,28.99-26.73,44.48-3.86,8.21-7.83,16.69-12.8,25.26-.91,1.56-2.16,4.39-3.49,7.38-2.29,5.13-4.65,10.43-6.51,12.43-4.17,4.45-7.4,5.24-10.79,6.01-2.44.49-4.79,1.31-7.01,2.44-9.53,4.94-14.19,9.2-14.23,13.01-.04,3.03,2.95,6.21,8.88,9.47l.31.16c2.73,1.39,6.17,1.7,9.49,1.99,3.64.33,7.41.7,10.41,2.42,3.46,1.82,6.13,4.84,7.51,8.49.64,1.76,1.68,3.34,3.05,4.61,1.73,1.43,3.54,2.76,5.41,4,8.14,5.61,19.29,13.29,11.81,25.44-4.74,7.71-27.37,15.14-45.53,21.13-6.55,2.15-12.2,4-15.36,5.37-30.06,13.03-53.27,15.01-70.96,6.04-.81-.41-1.63-.82-2.41-1.31l-20.16-.11c-2.56,2.62-20.42-6.25-20.64-6.36-3.57-1.81-6.02-3.43-7.22-4.78-8.85-9.98-4.75-18.37,0-28.09,1.93-3.57,4.17-6.97,6.7-10.14,4.1-5.5,8.34-11.18,9.08-16.98,1.04-8.18-2.74-12.14-7.14-16.73-2.74-2.87-5.58-5.84-7.43-10.02-1.36-3.34-1.95-6.94-1.72-10.54.01-4.32-.14-6.48-3.54-8.21-1.14-.55-2.33-.98-3.56-1.27-3.88-1.01-8.42,1.44-12.83,3.81-4.4,2.37-8.86,4.77-13.06,3.92-1.31-.26-2.57-.7-3.77-1.3-11.66-5.91-12.42-25.84-13.03-41.86-.04-4.54-.37-9.08-.98-13.58-.52-2.83-1.01-5.6-1.5-8.34-1.76-9.82-3.35-19.07-6.33-28.74-2.16-7.05-3.29-14.87-4.36-22.43-1.33-9.18-2.71-18.67-5.93-26.48-1.39-2.93-3.22-5.64-5.43-8.01-2.09-2.52-4.33-5.16-5.58-8.35-.82-2.09-.9-5.41-1-8.92.01-2.35-.16-4.69-.53-7.01-.78-3.65-1.67-6.83-2.53-9.91-2.25-8.07-4.2-15.06-2.46-25.16.92-5.35,1.98-10.29,3.01-15.07,1.84-8.56,3.59-16.64,4.29-26.08.33-3.9.92-7.78,1.77-11.61,1.73-8.38,2.3-11.19-8.77-19.05-2.41-1.71-4.54-3.13-6.41-4.37-10.58-7.11-13.79-9.23-15.14-26.18-.18-2.49.17-4.99,1.03-7.34.96-3.09,1.48-4.78-2.84-9.3-.95-.98-2.06-1.79-3.28-2.39-3.76-1.91-8.45-2.1-12.97-2.3l-2.49-.14c-4.87-.29-8.86-.25-12.32-.2-9.42.11-15.97.17-28.23-6.59l-3.07-1.69c-10.97-6.01-23.39-12.81-30.32-22.98-1.52-2.24-2.5-5.4-3.43-8.48s-1.86-6.06-3.18-7.61c-1.44-1.57-3.17-2.83-5.11-3.71-.79-.4-1.58-.8-2.41-1.16-.83-.36-1.7-.79-2.54-1.22-2.65-1.21-5.01-2.98-6.92-5.19-3.83-4.74-6.04-10.82-8.18-16.71-2.39-6.6-4.87-13.43-9.61-18.13-3.88-3.84-8.35-6.33-13.07-8.98-6.47-3.61-13.13-7.34-18.02-14.75-1.85-2.82-2.95-6.37-4.02-9.8-1.2-3.82-2.42-7.77-4.65-10.58-2.35-2.8-5.09-5.24-8.14-7.25-2.7-1.82-5.19-3.93-7.44-6.29-7.33-8.12-9.51-15.13-6.48-20.84,6.03-11.36,31.73-13.44,47.21-11.27,3.84.55,7.57,1.75,11.01,3.54,6.26,3.17,11.71,7.91,16.89,12.45,2.24,1.96,4.46,3.89,6.73,5.66,1.5,1.19,2.9,2.46,4.29,3.72,2.54,2.55,5.42,4.73,8.56,6.49,1.12.57,2.3,1.04,3.51,1.39,2.93.88,6.17.62,9.57.36,4.22-.35,8.57-.69,12.44,1.27,2.83,1.44,4.52,4.69,6.32,8.11,1.49,2.84,3.03,5.78,5,7.15,3.85,2.68,8.14,3.61,12.6,4.44,2.05.39,4.11.75,6.35,1.39,7.27,1.88,14.64,3.37,22.07,4.45,6.22,1.03,12.62,2.08,18.83,3.6,8.83,2.14,17.69,5.89,26.27,9.52,18.45,7.81,35.87,15.18,54.06,8.77,33.16-11.69,40.67-55.87,42.2-69.12.44-3.88.91-7.53,1.37-11.09,1.11-8.74,2.18-16.99,2.49-26.16.38-11.32-.77-16.39-2.68-24.78-.48-2.13-1.01-4.45-1.57-7.12-1.6-7.64-.72-12.97,2.65-16.32,4.01-3.94,11.34-4.64,22.31-2.17,5.59,1.32,11.11,2.96,16.52,4.9,7.27,2.46,14.13,4.79,22.94,5.71l16.17,1.72c23.44,2.5,45.64,4.89,68.28,6.45,4.58.32,8.94.56,13.08.78,22.18,1.24,39.69,2.23,60.23,12.64ZM720.34,256.35c-1.33-.66-2.55-1.54-3.61-2.58-12.06-12-14.22-40.27-15.8-60.91-.42-5.4-.77-10.07-1.25-13.86-2.05-16.17-3.25-21.45-10.35-36.16-8.17-16.92-8.89-17.72-25.6-28.13-3.13-1.94-6.25-3.71-9.31-5.26-19.92-10.1-37.08-11.04-58.92-12.29-4.2-.23-8.56-.48-13.16-.8-22.7-1.57-44.9-3.95-68.4-6.47l-16.16-1.72c-9.19-.96-16.26-3.37-23.67-5.88-5.3-1.91-10.69-3.52-16.17-4.82-9.67-2.18-16.14-1.74-19.22,1.3-2.48,2.44-3.07,6.89-1.74,13.24.55,2.65,1.08,4.95,1.56,7.06,1.89,8.36,3.16,13.89,2.74,25.63-.31,9.32-1.39,17.65-2.52,26.48-.45,3.53-.93,7.18-1.37,11.03-2.01,17.62-10.37,59.9-44.39,71.87-19.41,6.85-38.25-1.13-56.48-8.84-8.45-3.58-17.18-7.27-25.74-9.35-6.09-1.48-12.44-2.53-18.59-3.55-7.55-1.11-15.03-2.62-22.41-4.54-2.04-.58-4.09-.95-6.07-1.32-3.78-.53-7.47-1.61-10.94-3.22-1.03-.52-2.01-1.11-2.96-1.77-2.64-1.84-4.38-5.14-6.06-8.34-1.48-2.82-3.01-5.73-4.78-6.65-3.11-1.58-6.81-1.27-10.75-.95-3.52.3-7.27.57-10.81-.48-1.4-.42-2.76-.96-4.06-1.62-3.41-1.88-6.55-4.23-9.32-6.97-1.33-1.23-2.66-2.47-4.11-3.58-2.3-1.82-4.57-3.8-6.85-5.79-5.07-4.42-10.3-9-16.21-11.99-3.12-1.62-6.49-2.7-9.96-3.21-14.69-2.04-38.81.14-43.78,9.53-2.31,4.33-.28,10.07,5.98,17.02,2.09,2.18,4.41,4.14,6.92,5.82,3.3,2.18,6.28,4.82,8.83,7.84,2.6,3.31,3.91,7.6,5.22,11.63,1.05,3.36,2.03,6.52,3.62,8.96,4.39,6.72,10.43,10.11,16.84,13.69,4.72,2.63,9.59,5.35,13.8,9.52,5.23,5.2,7.88,12.41,10.4,19.36,2.13,5.89,4.15,11.45,7.62,15.75,1.62,1.83,3.61,3.3,5.84,4.31.8.41,1.62.82,2.44,1.18.83.36,1.68.8,2.5,1.21,2.34,1.07,4.43,2.6,6.17,4.5,1.76,2.07,2.75,5.34,3.82,8.8.83,2.8,1.76,5.73,3,7.55,6.48,9.52,18.52,16.13,29.16,21.93l3.07,1.69c11.51,6.37,17.32,6.29,26.59,6.17,3.54-.04,7.56-.09,12.54.2l2.46.12c4.66.2,9.9.41,14.37,2.68,1.52.77,2.9,1.78,4.09,3.01,5.32,5.51,4.89,8.57,3.65,12.59-.72,1.94-1.03,4.01-.9,6.07,1.23,15.3,3.39,16.76,13.68,23.67,1.88,1.27,4.03,2.71,6.48,4.41,12.39,8.79,12.07,12.98,10.11,22.48-.84,3.73-1.41,7.52-1.71,11.33-.73,9.68-2.47,17.84-4.37,26.55-1.02,4.74-2.07,9.65-2.98,14.91-1.6,9.37.16,15.69,2.4,23.68.87,3.12,1.77,6.35,2.57,10.1.41,2.53.62,5.09.61,7.66.07,3.07.19,6.27.77,7.78,1.04,2.68,2.98,4.98,5.03,7.42,2.21,2.65,4.51,5.37,5.96,8.88,3.37,8.19,4.79,17.9,6.15,27.28,1.08,7.43,2.2,15.12,4.29,21.92,3.03,9.86,4.68,19.22,6.44,29.1.49,2.74.97,5.5,1.5,8.32.62,4.67.94,9.39.96,14.1.58,14.36,1.3,33.99,11.2,39.01.92.46,1.9.8,2.92,1.01,3.05.63,6.8-1.43,10.8-3.59,4.96-2.68,10.09-5.45,15.26-4.11,1.46.36,2.87.88,4.22,1.53,5.41,2.74,5.41,7.05,5.37,11.21,0,2.89-.02,5.89,1.44,9.18,1.62,3.65,4.25,6.4,6.8,9.06,4.57,4.77,9.28,9.7,8.03,19.48-.85,6.66-5.32,12.72-9.7,18.55-2.41,3.01-4.54,6.23-6.38,9.62-4.56,9.34-7.86,16.09-.51,24.39.52.59,2.02,1.89,6.24,4.03,4.8,2.4,9.78,4.43,14.89,6.09l2.44-.07,22.94.13.4.2c.86.52,1.74,1,2.64,1.45,16.75,8.49,39.02,6.49,68.11-6.12,3.3-1.43,9.01-3.3,15.64-5.49,15.79-5.19,39.66-13.03,43.75-19.69,5.38-8.74-1.4-14.41-10.84-20.92-1.98-1.31-3.89-2.72-5.71-4.24-1.73-1.59-3.07-3.57-3.91-5.77-1.09-3.01-3.28-5.49-6.14-6.95l-.46-.23c-2.32-1.17-5.36-1.45-8.57-1.73-3.64-.33-7.4-.66-10.71-2.34l-.41-.21c-7.2-3.94-10.67-8.02-10.62-12.44.11-6.87,9.19-12.4,16.03-15.95,2.46-1.25,5.08-2.16,7.78-2.72,3.28-.78,5.64-1.34,9.11-5.04,1.46-1.57,3.89-7.01,5.88-11.47,1.37-3.07,2.67-5.97,3.66-7.69,4.86-8.44,8.82-16.87,12.68-25.03,7.37-15.71,14.35-30.53,27.25-45.26,18.37-20.76,38.25-40.14,59.47-57.98,5.6-4.64,11.69-9.35,17.58-13.91,5.36-4.14,10.9-8.42,16.12-12.67,8.4-6.87,10.31-11.49,13.27-18.44,1.73-4.27,3.71-8.42,5.94-12.45,2.31-3.99,4.87-7.84,7.66-11.52,4.54-6.2,8.83-12.07,11.44-21.45l1.48-5.15c3.3-11.93,6.69-24.28,11.15-35.57,6.18-15.65,6.01-21.28,2.63-38.58-2.75-14.02-5.19-23.45-10.93-36.05-4.98-10.94-10.11-16.64-16.6-23.86-2.06-2.28-4.25-4.71-6.62-7.51-1.58-1.92-2.41-4.41-3.25-6.88-.84-2.47-1.55-4.8-2.95-6.08-2.23-2.05-5.59-2.95-9.12-3.75-2.59-.47-5.11-1.26-7.51-2.36h.02Z"/>
  </g>
  <g class="cls-4">
    <path class="cls-2" d="M631.5,122.12c1.28.65,2.52,1.37,3.73,2.16,10.82,6.97,17.24,16.73,24.1,30.19,13.75,27.19,10.27,49.64,6.21,75.68-.5,3.2-1,6.49-1.51,9.86-.33,2.29-.86,4.98-1.44,7.89-2.17,10.92-5.09,25.91.33,33.33,1.6,2.33,3.74,4.24,6.23,5.58,7.92,4.01,17.24-1.04,25.47-5.49,1.41-.76,2.75-1.49,4.05-2.15,10.07-5.12,19.61-5.45,28.48-.96,10.26,5.2,19.26,16.5,27.5,34.55,9.98,21.91,10.91,44.25,2.96,72.54-3.56,12.67-7.59,27.03-14.61,40.04-2.45,4.55-4.42,8.99-6.47,13.64-3,7.24-6.57,14.22-10.67,20.9-10.34,16.19-25.58,27.71-40.31,38.85-7.57,5.72-15.4,11.64-22.4,18.08-6.01,5.54-12.94,10.21-19.65,14.75-5,3.37-10.2,6.83-14.83,10.62-11.9,9.62-19.7,21.14-27.39,33.04-3.27,5.42-6.09,11.1-8.44,16.98-3.13,7.29-6.39,14.83-11.66,21.72-4.81,6.29-10.86,11-16.7,15.55-5.03,3.91-9.79,7.61-13.85,12.26l-23.26,18.16c-.08.98-1.01,2.16-3.7,5.51-2.69,3.34-6.49,8.04-7.34,10.75-3.06,9.75-2.66,10.26,4.01,18.69l.27.34c3.16,4.02,7.19,7.29,11.79,9.54,4.18,1.98,8.52,3.61,12.97,4.88,4.77,1.37,9.41,3.12,13.89,5.26,1.39.7,2.74,1.48,4.05,2.32,9.72,6.27,14.08,13.42,11.96,19.62-2.2,6.4-10.89,9.9-22.16,8.91-3.74-.33-6.77-.87-9.71-1.41-6.09-1.1-10.9-1.96-18.95-.29-3.61.8-7.16,1.83-10.64,3.07-4.98,1.68-10.15,3.41-16.03,3.78-6.45.44-22.59.78-34.02-5.01-3.24-1.56-6.09-3.82-8.35-6.61-7.43-9.48-3.84-16.62-.1-24.19,2.12-3.83,3.74-7.92,4.82-12.16,2.93-13.27-12.19-43.54-29.14-52.13-2.16-1.16-4.54-1.86-6.99-2.05-3.95-.24-7.82,1.89-11.57,3.94-4.84,2.67-9.86,5.42-14.98,2.82-2.23-1.24-4.11-3.03-5.46-5.2-3.95-5.77-2.52-17.19-1.23-27.23.53-3.56.85-7.15.96-10.75-.27-18.11-4.04-34.13-7.94-51.09-1.73-7.51-3.5-15.26-5.07-23.25-1.66-8.94-.8-18.05.02-26.87.78-6.43,1.06-12.92.85-19.4-.47-7.76-3.19-14.77-5.81-21.55-3.05-7.88-5.92-15.36-5.59-23.83.43-10.36,4.52-18.59,8.47-26.57,6.49-13.1,12.1-24.41-1.47-41.71-3.16-3.83-6.7-7.32-10.58-10.41-6.87-5.82-13.36-11.32-15.48-23.08-.66-3.65.22-6.71.99-9.41,1.1-3.86,2.06-7.18-1.23-11.99-1.1-1.32-2.49-2.37-4.07-3.05-4.15-2.1-9.92-3.56-13.01-4.35l-.36-.09c-4.64-1-9.36-1.57-14.11-1.7-7.62-.49-15.47-.95-22.33-4.43-1.69-.85-3.28-1.88-4.76-3.07-2.97-2.41-4.75-5.47-6.47-8.42-1.71-2.96-3.36-5.78-5.97-7.26-2.64-1.34-6.4-1.11-10.04-.89-2.5.24-5.03.23-7.53-.04-5.31-.72-10.48-2.27-15.32-4.58-7-3.55-12.24-9.1-16.51-17.5-3.29-6.44-10.86-27.19-6.35-37.05,7.52-16.41,36.71-3.73,60.17,6.47,8.34,3.63,15.57,6.77,20.24,7.87,5.31,1.4,10.52,3.13,15.62,5.17,8.42,3.15,17.12,6.43,25.04,6.73,4.65.17,8.34-1.74,12.23-3.77,3.29-1.7,6.68-3.47,10.65-3.85,3.98-.38,7.31,1.3,10.33,2.76,2.57,1.3,5.05,2.45,7.36,2.18,8.87-1.02,30.53-13.31,37.15-19.37,9.87-8.99,20.85-28.75,23.04-41.46,2.19-12.71,1.48-26.63.78-40.05-.7-13.42-1.41-27.67.88-40.37,1.09-6.01,3.8-10.43,8.02-13.04,10.18-6.38,27.26-1.6,42.33,2.62,6.65,1.86,12.92,3.62,17.78,4.16,7.95.89,15.34,1.04,23.21,1.11,4.78.07,9.73.13,14.87.4,8.29.42,15.4,3.38,22.27,6.23,5.85,2.44,11.38,4.73,17.45,5.47,6.46.77,11.68.1,16.71-.52,7.49-.9,14.49-1.84,23.34,2.65ZM667.62,289.84c-2.95-1.58-5.49-3.84-7.41-6.59-6.28-8.61-3.31-23.77-.88-35.94.55-2.84,1.07-5.48,1.4-7.73.5-3.38,1.01-6.67,1.51-9.89,4.12-26.51,7.39-47.45-5.89-73.64-6.6-13-12.73-22.38-22.91-28.95-9.6-6.18-16.56-5.31-24.8-4.26-5.8.95-11.7,1.13-17.54.56-6.48-.77-12.49-3.26-18.3-5.68-6.6-2.75-13.44-5.6-21.15-5.99-5.08-.25-10-.33-14.75-.4-7.94-.11-15.43-.23-23.54-1.12-5.13-.59-11.53-2.37-18.31-4.27-14.4-4.04-30.72-8.6-39.65-3.01-3.45,2.15-5.58,5.69-6.49,10.8-2.25,12.34-1.53,26.18-.85,39.6.7,13.64,1.42,27.75-.83,40.83-2.26,13.32-13.77,33.97-24.08,43.36-6.48,5.92-28.63,18.99-39.02,20.18-3.28.37-6.29-1.09-9.2-2.5-2.91-1.41-5.61-2.72-8.55-2.43-3.33.31-6.29,1.86-9.42,3.48-4.12,2.14-8.37,4.34-13.91,4.18-8.48-.31-17.44-3.68-26.1-6.95-4.96-1.99-10.04-3.68-15.21-5.05-4.97-1.17-12.31-4.36-20.81-8.07-20.93-9.11-49.62-21.6-55.77-8.14-3.51,7.63,2.14,25.99,6.29,34.14,3.99,7.84,8.63,12.79,15.04,16.04,4.52,2.16,9.36,3.59,14.33,4.26,2.26.23,4.54.23,6.81,0,4.09-.24,8.31-.49,11.55,1.15l.36.18c3.4,1.93,5.34,5.26,7.21,8.48,1.57,2.71,3.19,5.49,5.68,7.51,1.29,1.04,2.69,1.94,4.17,2.68,6.26,3.17,13.76,3.61,21.01,4.08,4.95.17,9.88.78,14.71,1.84l.35.09c3.23.81,9.24,2.32,13.72,4.6,2.08.92,3.9,2.34,5.29,4.13,4.18,6.11,2.86,10.73,1.69,14.81-.74,2.57-1.42,5.02-.92,7.88,1.92,10.59,7.68,15.47,14.35,21.12,4.06,3.23,7.77,6.89,11.07,10.9,14.87,18.96,8.54,31.74,1.82,45.27-3.79,7.65-7.72,15.56-8.11,25.21-.33,7.8,2.44,14.93,5.37,22.48,2.72,7,5.53,14.27,6.03,22.56.22,6.65-.06,13.31-.85,19.91-.8,8.58-1.63,17.47-.06,25.95,1.47,7.89,3.25,15.61,4.99,23.07,3.98,17.17,7.73,33.37,8.02,51.8-.1,3.75-.43,7.49-1,11.2-1.14,9.01-2.56,20.21.67,24.93,1.04,1.69,2.49,3.1,4.21,4.1,3.57,1.81,7.39-.32,11.85-2.78,3.97-2.18,8.49-4.68,13.43-4.33,2.9.23,5.73,1.05,8.3,2.41,17.08,8.66,34.41,39.96,30.9,55.84-1.15,4.48-2.87,8.8-5.1,12.85-3.76,7.41-6.42,12.78-.32,20.59,1.96,2.4,4.43,4.34,7.23,5.67,10.72,5.43,26.17,5.1,32.31,4.7,5.45-.36,10.18-1.94,15.19-3.62,3.61-1.28,7.29-2.34,11.03-3.17,8.76-1.76,14.06-.83,20.26.3,2.85.51,5.81,1.05,9.4,1.39,9.53.83,17.04-1.84,18.7-6.67,1.55-4.55-2.41-10.43-10.61-15.72-1.21-.78-2.46-1.49-3.74-2.14-4.32-2.05-8.8-3.73-13.39-5.04-4.62-1.33-9.13-3.03-13.47-5.09-5.02-2.49-9.42-6.06-12.89-10.45l-.28-.34c-6.94-8.75-8.23-10.35-4.61-21.78,1.04-3.32,4.86-8.05,7.93-11.85,1.17-1.45,2.6-3.23,2.97-3.88l-.5-.76,24.82-19.34c4.05-4.69,9.14-8.64,14.08-12.49,5.68-4.42,11.56-8.99,16.11-14.94,5.02-6.57,8.17-13.91,11.23-21.01,2.42-6.04,5.33-11.88,8.7-17.45,7.8-12.17,15.82-23.92,28.11-33.85,4.77-3.86,10.01-7.39,15.06-10.79,6.6-4.45,13.42-9.06,19.25-14.42,7.1-6.51,15.02-12.52,22.65-18.29,14.53-10.95,29.49-22.29,39.52-37.97,3.99-6.54,7.46-13.39,10.38-20.48,2-4.53,4.06-9.18,6.59-13.87,6.85-12.69,10.83-26.86,14.34-39.37,7.71-27.47,6.85-49.14-2.79-70.24-7.82-17.09-16.56-28.18-25.98-32.96-7.94-4.02-16.24-3.74-25.45.95-1.27.65-2.6,1.37-3.98,2.12-8.49,4.58-19.07,10.31-28.55,5.5h0ZM525.22,661.23l-1.19-1.73c-.06.33,0,.66.14.96.15.3.39.54.69.68.11.05.24.08.36.09h0Z"/>
  </g>
  <g class="cls-7">
    <path class="cls-2" d="M607,158.22c9.45,4.79,15.91,11,20.28,19.56,5.94,11.57,3.69,19.84,1.31,28.58-1.37,4.92-2.73,10.04-2.64,16.03.04,3.39,1.39,6.76,2.68,10.03,1.71,4.33,3.48,8.8,2.46,13.6-.93,4.44-4.39,8.19-7.72,11.82-3.09,3.38-6.29,6.85-7.5,10.8-1.12,3.7-2.13,7.23-3.11,10.7-2.99,10.52-5.85,20.41-11.24,32.5-7,15.55-9.72,23.44,4.63,32.86,1.12.74,2.28,1.41,3.47,2.02,18.15,9.2,36.39-2.19,55.7-14.26,14.76-9.18,29.97-18.71,45.47-18.52,5.18-.09,10.32,1.01,15.01,3.21,20.09,10.18,13.66,41.48,9.4,62.18-.35,1.73-.7,3.39-1,4.95-1.24,6.27-2.08,12.66-2.97,19.43-2.74,20.71-5.61,42.09-20.13,58.51-8.96,10.06-22.06,18.59-31.12,24.12-12.1,7.35-21.87,15.69-32.18,24.48-1.93,1.58-3.8,3.24-5.77,4.89-11.8,9.99-21.82,21.9-31.46,33.43-8.73,10.42-17.74,21.18-27.97,30.29-6.11,5.41-10.98,11.92-15.72,18.19-4.02,5.6-8.43,10.9-13.2,15.87-5.01,5-10.5,8.87-15.82,12.62-5.32,3.75-10.88,7.65-15.8,12.65-6.66,6.73-22.7,19.72-35.47,20.22-3.48.24-6.96-.43-10.1-1.95-3.93-1.99-6.53-5.18-9.27-8.56-2.59-3.19-5.27-6.48-9.34-9.05-5.61-3.55-13.11-4.54-20.4-5.52-7.48-1.02-15.23-2.1-20.83-5.86-7.22-4.87-8.55-12.43-9.95-20.42-.57-3.88-1.46-7.72-2.65-11.46-9.52-27.35-5.72-45.38-.46-70.32.6-2.65,1.17-5.42,1.73-8.29,4.53-22.12,1.22-40.77-2.61-62.35-.73-4.13-1.47-8.35-2.19-12.69v-.48s2.3-19.05,2.3-19.05c-1.94-5.04-.82-8.6.32-12.04.76-2.03,1.24-4.15,1.45-6.31.68-10.09-2.2-13.77-5.84-18.45-2.91-3.44-5.2-7.37-6.77-11.6-1.35-3.81-.61-7.53.12-11.17.64-3.21,1.25-6.25.26-9.01-1.39-3.91-3.64-5.41-6.45-7.33-1.92-1.22-3.7-2.64-5.31-4.23-6.94-7.17-8.29-12.46-9.86-18.58-1.06-4.68-2.7-9.21-4.89-13.47-1.9-3.64-4.2-6.12-7.04-7.56-4.32-2.19-9.62-1.92-15.74-1.61-4.49.35-9,.32-13.49-.09-6.11-.71-15.16-2.73-22.23-6.31-7.65-3.88-11.47-8.75-11.34-14.46.1-4.52,1.49-7.87,4.14-9.96,5.31-4.22,14.16-2.36,21.27-.88,2.03.42,3.97.83,5.47,1.01,24.16,2.8,45.48-1.67,68.04-6.36,5.1-1.07,10.29-2.14,15.6-3.16,28.62-5.5,41.93-18.33,52.73-50.85,4.75-14.27,6.93-29.19,5.94-40.97-.37-3.28-.91-6.53-1.63-9.76-2.08-10.47-4.68-23.5,1.66-31.39,10.81-13.48,68.63-1.6,81.78,4.18,3.37,1.47,6.83,3.12,11.24,5.36,1.97,1,3.94,2,5.91,2.99,1.97,1,3.94,2,5.93,3,6.83,3.56,13.89,6.67,21.13,9.28,4.04,1.38,7.99,3.04,11.81,4.95ZM608.12,349.65c-1.3-.66-2.56-1.39-3.78-2.2-16.55-10.85-12.99-21.18-5.85-37.03,5.32-11.84,8.12-21.64,11.08-32.03.99-3.5,2-7.05,3.13-10.77,1.42-4.68,4.89-8.45,8.23-12.1,3.17-3.45,6.16-6.71,6.91-10.25.8-3.79-.71-7.6-2.31-11.65-1.4-3.54-2.86-7.23-2.92-11.22-.09-6.46,1.36-11.79,2.76-16.95,2.3-8.46,4.31-15.79-1.05-26.18-4.04-7.89-10.02-13.64-18.82-18.1-3.69-1.82-7.49-3.4-11.39-4.72-7.39-2.65-14.6-5.79-21.57-9.41-1.99-1.01-3.97-2.01-5.94-3.01-1.98-1-3.92-1.99-5.89-2.98-4.35-2.21-7.77-3.85-11.07-5.29-15.64-6.81-69.37-15.7-77.83-5.16-5.36,6.67-2.93,18.86-.99,28.65.74,3.34,1.3,6.73,1.68,10.13,1,12.2-1.21,27.62-6.11,42.3-9.78,29.41-21.5,46.56-55.3,53.06-5.29,1.02-10.45,2.1-15.54,3.16-22.84,4.76-44.42,9.26-69.11,6.42-1.65-.2-3.65-.62-5.77-1.06-6.43-1.35-14.42-3.02-18.5.22-1.86,1.46-2.79,3.9-2.88,7.41-.1,4.32,3.1,8.16,9.5,11.41,6.68,3.38,15.54,5.33,21.1,5.96,4.3.39,8.62.43,12.92.1,6.33-.32,12.3-.63,17.42,1.97,3.49,1.77,6.26,4.71,8.49,9,2.31,4.5,4.04,9.27,5.16,14.21,1.5,5.9,2.7,10.56,9.02,17.09,1.46,1.44,3.07,2.71,4.81,3.8,2.93,1.99,5.97,4.04,7.74,8.98,1.3,3.64.58,7.28-.13,10.8-.65,3.3-1.27,6.41-.24,9.34,1.45,3.89,3.56,7.49,6.25,10.64,3.76,4.82,7.3,9.37,6.53,20.73-.22,2.44-.76,4.84-1.61,7.14-1.1,3.34-1.97,5.99-.23,10.11l.17.41-2.38,19.66c.7,4.24,1.43,8.37,2.15,12.41,3.89,21.92,7.26,40.85,2.59,63.6-.59,2.87-1.17,5.63-1.74,8.31-5.34,25.32-8.87,42.06.34,68.52,1.27,3.91,2.2,7.92,2.8,11.98,1.33,7.59,2.48,14.14,8.53,18.22,5.02,3.4,11.98,4.32,19.39,5.33,7.63,1.03,15.59,2.11,21.73,6,4.54,2.86,7.53,6.53,10.15,9.77,2.63,3.24,4.89,6.02,8.19,7.69,2.63,1.25,5.54,1.8,8.45,1.6,10.89-.43,25.83-11.72,33.23-19.22,5.13-5.21,10.77-9.15,16.25-13.04,5.22-3.66,10.58-7.45,15.39-12.24,4.67-4.89,8.99-10.1,12.92-15.61,4.83-6.41,9.81-13,16.2-18.66,10.05-8.95,18.93-19.62,27.63-29.93,9.75-11.64,19.85-23.64,31.88-33.83,1.96-1.65,3.9-3.27,5.74-4.89,10.42-8.91,20.28-17.28,32.6-24.83,8.87-5.41,21.68-13.73,30.35-23.48,13.89-15.63,16.64-36.5,19.32-56.73.86-6.52,1.75-13.26,3.02-19.62.31-1.58.65-3.25,1.01-4.99,4.04-19.7,10.16-49.48-7.65-58.51-4.23-1.97-8.85-2.95-13.52-2.86-14.53-.14-29.33,9.12-43.68,18.04-19.25,12.03-39.11,24.47-58.99,14.4Z"/>
  </g>
  <g class="cls-6">
    <path class="cls-2" d="M543.83,168.35c3.37,1.74,6.51,3.89,9.36,6.4,4.92,4.29,10.15,8.07,15.21,11.72,18.31,13.23,35.61,25.72,26.35,56.33-2.1,6.98-6.09,13.06-9.94,18.93-4.56,6.94-8.86,13.48-10.18,21.32-.86,5.7-1.15,11.48-.88,17.24.17,7.65.31,14.9-3.05,24.2-8.61,23.79.35,31.63,7.87,35.44,8.71,4.41,21.5,5.81,33.86,6.85,12.08,1.03,29.93.78,40.47-3.35,7.37-2.88,12.75-8.65,18.45-14.75,5.46-5.83,11.09-11.86,18.67-15.25,7.18-3.24,13.01-3.75,17.33-1.56,15.55,7.88,5.58,47.9-.84,61.78-4.04,8.76-9.35,16.79-14.49,24.55-2.77,4.21-5.62,8.52-8.26,12.93-7.93,13.23-18.61,18.74-29.91,24.61-5.09,2.53-10.04,5.33-14.84,8.38-15.42,10.16-27.08,16-46.31,23.29-15.62,5.93-24.28,17.34-25.72,33.95-.44,5.38-.14,10.8.89,16.1,1.25,7.68,2.24,13.74-5.41,25.6-2.07,3.19-4.09,6.56-6.17,9.96-6.99,11.58-14.19,23.57-24.43,31.52-3.12,2.21-6.5,4.03-10.07,5.41-4.06,1.77-7.9,3.44-10.89,6.31-2.14,2.01-3.53,5.14-4.9,8.17-1.51,3.31-3.07,6.74-5.64,9.07-11.72,10.56-19.8,6.18-30.4-.11-2.17-1.29-4.48-2.66-6.97-3.97-3.42-1.81-6.76-3.43-10.04-5-2.32-1.12-4.6-2.22-6.81-3.34-14.81-7.51-28.24-16.44-29.99-43.07-1.2-18.46.47-37.96,2.05-56.74.93-10.99,1.89-22.35,2.27-33.29l.09-2.58c.47-13.67.83-24.47-.47-38.28-.47-4.91.39-10.48,1.21-15.86,1.16-7.62,2.35-15.5-.24-21.15l-.19-.39.85-13.15c-.33-2.92-.91-5.81-1.73-8.64-1.19-4.68-2.42-9.52-1.94-13.91.42-4.1,1.79-8.06,3.99-11.55,2.02-3.47,2.78-4.77-2.66-11.15-2.18-2.55-4.66-3.57-6.89-4.62-.65-.33-1.3-.66-1.96-.99-3.06-1.4-5.63-3.68-7.37-6.57-1.75-2.95-1.91-6.33-2.08-9.59-.17-3.26-.33-6.45-2.08-8.92-2.12-3.05-6.46-5.42-11.05-7.91-8.69-4.72-18.54-10.08-15.89-22.22,3.38-15.53,26.01-18.22,45.97-20.59,11.15-1.33,21.69-2.58,27.3-5.82,30.06-17.43,37.22-33.26,46.39-65.23,4.32-15.06,13.36-26.55,24.83-31.54,8.79-3.91,18.25-3.51,27.28,1.06ZM577,362.83c-13.53-6.86-16.64-19.78-9.5-39.52,3.15-8.72,3.01-15.64,2.86-22.99-.29-5.97.02-11.96.92-17.87,1.43-8.5,6.13-15.66,10.68-22.6,3.73-5.67,7.58-11.54,9.54-18.06,8.57-28.32-6.3-39.05-25.11-52.64-5.11-3.71-10.41-7.52-15.44-11.9-2.64-2.32-5.56-4.32-8.68-5.94-8.11-4.11-16.56-4.47-24.43-1.05-10.38,4.52-18.96,15.52-22.94,29.4-9.21,32.14-16.94,49.26-47.93,67.21-6.2,3.6-17.08,4.89-28.59,6.26-18.84,2.23-40.2,4.78-43.09,17.97-2.11,9.69,5.82,14,14.19,18.55,4.95,2.7,9.62,5.24,12.2,8.95,2.28,3.29,2.47,7.05,2.66,10.69.16,2.99.32,5.78,1.62,8.07,1.94,3.3,4.74,4.7,7.9,6.18,2.56,1.22,5.39,2.42,8.01,5.49,6.65,7.8,5.53,10.67,3.01,15.01-1.96,3.09-3.18,6.6-3.55,10.24-.3,3.8.77,8.33,1.89,12.78.89,3.1,1.5,6.27,1.83,9.47l-.79,12.52c2.79,6.5,1.53,14.72.34,22.64-.83,5.42-1.6,10.54-1.18,15.04,1.32,14.02.95,24.92.48,38.71l-.09,2.59c-.38,11.04-1.34,22.43-2.28,33.46-1.61,18.69-3.22,38.04-2.04,56.26,1.63,24.9,13.71,32.98,28.15,40.3,2.19,1.11,4.42,2.24,6.76,3.31,3.31,1.59,6.7,3.23,10.14,5.05,2.56,1.35,4.92,2.75,7.13,4.06,2.21,1.31,4.27,2.53,6.23,3.53,6.84,3.47,12.34,4.09,20.22-3.03,2.06-1.85,3.41-4.82,4.84-7.97,1.51-3.3,3.06-6.72,5.62-9.19,3.43-3.29,7.73-5.16,11.88-6.96,3.31-1.28,6.46-2.95,9.36-5,9.76-7.54,16.8-19.27,23.6-30.59,2.06-3.45,4.1-6.85,6.22-10.05,6.97-10.78,6.16-15.74,4.93-23.25-1.09-5.57-1.4-11.27-.92-16.93,1.57-18.01,10.92-30.41,27.88-36.79,18.98-7.23,30.48-12.98,45.63-22.93,4.89-3.12,9.95-5.97,15.14-8.56,11.34-5.87,21.14-10.95,28.57-23.36,2.68-4.47,5.59-8.82,8.35-13.06,5.07-7.65,10.3-15.58,14.24-24.11,6.35-13.8,15.06-50.95,2.3-57.42-3.38-1.71-8.24-1.16-14.46,1.66-6.97,3.13-12.38,8.91-17.59,14.51-5.71,6.09-11.62,12.42-19.69,15.58-11.07,4.32-28.94,4.68-41.98,3.58-12.61-1.12-25.77-2.57-35.05-7.27Z"/>
  </g>
  <g class="cls-9">
    <path class="cls-2" d="M539.71,196.49c4.66,2.36,9.58,6.96,14.63,13.66,17.02,22.57,10.57,36.59,2.4,54.34-3.16,6.88-6.43,14.01-8.8,22.5-2.68,9.73-3.07,16.98-3.46,24.68-.2,4.23-.42,8.61-1.02,13.66-.69,5.67-2.98,10.31-4.95,14.42-3.36,6.88-6.01,12.31-1.4,20.5,5.12,8.99,12.84,16.23,22.13,20.78,35.4,17.94,90.89,3.6,113.25-20.23,10.6-11.31,17.72-15.48,22.37-13.12,2.87,1.45,4.35,5.16,4.54,11.28.27,9.8-8.17,25.2-13.75,35.4l-1.57,2.88c-5.71,10.59-17.54,25.51-27.38,32.06-6.06,4.03-13.4,6.16-20.5,8.23-5.36,1.43-10.59,3.3-15.64,5.58-5.69,2.56-11.53,4.77-17.48,6.62-8.63,2.89-17.57,5.87-23.9,10.23-5.83,3.99-12.16,9.77-18.3,15.34-4.22,3.89-8.64,7.87-12.74,11.16-10.2,8.16-16.15,20.28-21.37,31.99-.34.67-.79,1.72-1.38,2.95-2.05,4.3-5.87,12.29-6.06,15.07-.31,4.52,1.37,6.67,3.49,9.4,1.91,2.19,3.34,4.76,4.2,7.53,2.85,10.24-.06,22.28-8.09,33.96-10.06,14.53-26.06,25.11-39.81,26.34-7.46.76-14.99-.62-21.7-3.98-14.07-7.13-24.73-23.77-28.53-44.51-3.17-17.27-.51-36.32,2.06-54.77,1.32-9.44,2.57-18.36,3.06-27,.34-5.72.26-12.33.19-19.35-.19-18.98-.41-40.49,7.16-54.7l6.42-16.18c-1.94-3.31-1.31-9.05-.6-15.62.58-5.58,1.24-11.3.11-15.03-.59-1.8-1.4-3.53-2.42-5.14-1.63-2.49-2.7-5.3-3.13-8.25-.43-3.26.97-6.89,2.33-10.39,1.21-3.17,2.49-6.46,1.87-8.44-1.71-5.49-6.92-7.6-11.73-9.83-1.21-.54-2.41-1.1-3.57-1.69-4.59-2.33-9.42-5.63-10.43-12.45-.74-4.87.2-9.11,2.77-12.46,5.86-7.7,18.77-9.29,28.18-10.43l.35-.04c2.79-.35,5.53-.57,8.22-.71,10.3-.73,19.18-1.35,26.82-10.32,8.74-10.24,15.37-30.75,17.82-39.09,6.33-21.57,13.58-33.87,22.16-37.58,4.15-1.87,8.6-1.61,13.19.72ZM557.74,384.05c-9.89-4.85-18.09-12.55-23.54-22.12-5.5-9.73-2.2-16.48,1.28-23.63,1.98-4.05,4.03-8.24,4.65-13.37.59-4.93.8-9.25,1.01-13.43.39-7.89.77-15.34,3.57-25.41,2.37-7.91,5.38-15.62,9-23.04,8-17.39,13.78-29.95-2.04-50.92-8.93-11.85-16.87-16.42-23.86-13.37-7.5,3.24-14.34,15.2-20.28,35.44-2.5,8.55-9.33,29.59-18.48,40.33-8.54,10.03-18.54,10.74-29.12,11.48-2.61.18-5.28.37-8.01.71l-.39.1c-8.86,1.13-20.94,2.59-25.98,9.15-2.02,2.66-2.71,5.9-2.12,9.95.74,5.01,3.99,7.64,8.62,9.98,1.13.57,2.27,1.15,3.46,1.64,1.19.49,2.39,1.11,3.56,1.7,3.99,2.02,8.29,4.81,9.96,10.18.96,3.09-.45,6.76-1.95,10.63-1.2,3.12-2.45,6.35-2.18,8.73.37,2.5,1.3,4.89,2.71,6.99,1.16,1.83,2.07,3.81,2.73,5.88,1.31,4.36.65,10.44,0,16.35-.59,5.6-1.3,11.94.42,13.93l.66.78-7.21,18.13c-7.24,13.63-7,34.65-6.83,53.27.07,7.07.14,13.74-.19,19.57-.5,8.74-1.76,17.75-3.08,27.27-2.54,18.17-5.15,36.96-2.08,53.69,3.62,19.73,13.62,35.47,26.76,42.13,6.15,3.07,13.05,4.33,19.88,3.63,12.82-1.14,27.83-11.15,37.33-24.89,7.48-10.81,10.2-21.89,7.63-31.16-.76-2.35-2-4.51-3.65-6.34-2.25-2.89-4.59-5.89-4.19-11.67.21-3.16,3.27-9.78,6.38-16.29.6-1.19,1.05-2.2,1.34-2.87,5.4-12.09,11.56-24.62,22.34-33.25,4.01-3.21,8.18-7,12.58-11.02,6.23-5.65,12.64-11.5,18.65-15.62,6.75-4.62,15.89-7.68,24.73-10.64,5.82-1.8,11.53-3.96,17.09-6.47,5.23-2.34,10.63-4.24,16.17-5.69,7.17-2.09,13.94-4.06,19.57-7.8,9.29-6.18,20.89-20.87,26.3-30.86l1.58-2.9c5.08-9.28,13.59-24.82,13.33-33.68-.15-4.57-1.08-7.6-2.69-8.42-1.61-.82-6.36-.41-18.4,12.42-22.95,24.56-80.39,39.39-117.02,20.83Z"/>
  </g>
</svg>